<svg width="344" height="309" viewBox="0 0 344 309" fill="none" xmlns="http://www.w3.org/2000/svg">
<g filter="url(#filter0_b_394_297)">
<mask id="path-1-inside-1_394_297" fill="white">
<path fill-rule="evenodd" clip-rule="evenodd" d="M140.563 173.351C140.683 173.352 140.804 173.353 140.924 173.353C158.087 173.353 172 159.44 172 142.277C172 125.115 158.087 111.202 140.924 111.202C140.804 111.202 140.683 111.202 140.563 111.204V111.202H132.535C132.825 109.075 132.975 106.904 132.975 104.697C132.975 78.3549 111.62 57 85.2773 57C58.9347 57 37.5798 78.3549 37.5798 104.697C37.5798 107.183 37.77 109.624 38.1365 112.007C35.8681 111.48 33.5044 111.202 31.0756 111.202C13.913 111.202 0 125.115 0 142.277C0 159.44 13.913 173.353 31.0756 173.353C31.1968 173.353 31.3178 173.352 31.4386 173.351L31.437 173.353H140.563V173.351Z"/>
</mask>
<path fill-rule="evenodd" clip-rule="evenodd" d="M140.563 173.351C140.683 173.352 140.804 173.353 140.924 173.353C158.087 173.353 172 159.44 172 142.277C172 125.115 158.087 111.202 140.924 111.202C140.804 111.202 140.683 111.202 140.563 111.204V111.202H132.535C132.825 109.075 132.975 106.904 132.975 104.697C132.975 78.3549 111.62 57 85.2773 57C58.9347 57 37.5798 78.3549 37.5798 104.697C37.5798 107.183 37.77 109.624 38.1365 112.007C35.8681 111.48 33.5044 111.202 31.0756 111.202C13.913 111.202 0 125.115 0 142.277C0 159.44 13.913 173.353 31.0756 173.353C31.1968 173.353 31.3178 173.352 31.4386 173.351L31.437 173.353H140.563V173.351Z" fill="url(#paint0_linear_394_297)"/>
<path d="M140.563 173.351L140.586 171.351C140.052 171.345 139.537 171.553 139.157 171.929C138.777 172.304 138.563 172.816 138.563 173.351H140.563ZM140.563 111.204H138.563C138.563 111.738 138.777 112.25 139.157 112.626C139.537 113.002 140.051 113.21 140.586 113.204L140.563 111.204ZM140.563 111.202H142.563C142.563 110.097 141.668 109.202 140.563 109.202V111.202ZM132.535 111.202L130.553 110.931C130.475 111.504 130.649 112.082 131.028 112.517C131.408 112.952 131.957 113.202 132.535 113.202V111.202ZM38.1365 112.007L37.6838 113.955C38.3304 114.106 39.0094 113.925 39.4962 113.474C39.983 113.023 40.2141 112.359 40.1132 111.703L38.1365 112.007ZM31.4386 173.351L33.0083 174.59C33.4859 173.985 33.5734 173.16 33.2334 172.468C32.8934 171.777 32.1863 171.342 31.4158 171.351L31.4386 173.351ZM31.437 173.353L29.8672 172.114C29.3923 172.715 29.3029 173.535 29.6372 174.225C29.9714 174.915 30.6705 175.353 31.437 175.353V173.353ZM140.563 173.353V175.353C141.668 175.353 142.563 174.458 142.563 173.353H140.563ZM140.54 175.351C140.668 175.352 140.796 175.353 140.924 175.353V171.353C140.811 171.353 140.699 171.352 140.586 171.351L140.54 175.351ZM140.924 175.353C159.192 175.353 174 160.544 174 142.277H170C170 158.335 156.982 171.353 140.924 171.353V175.353ZM174 142.277C174 124.01 159.192 109.202 140.924 109.202V113.202C156.982 113.202 170 126.219 170 142.277H174ZM140.924 109.202C140.796 109.202 140.668 109.202 140.54 109.204L140.586 113.204C140.698 113.202 140.811 113.202 140.924 113.202V109.202ZM138.563 111.202V111.204H142.563V111.202H138.563ZM132.535 113.202H140.563V109.202H132.535V113.202ZM134.517 111.472C134.819 109.256 134.975 106.994 134.975 104.697H130.975C130.975 106.813 130.831 108.894 130.553 110.931L134.517 111.472ZM134.975 104.697C134.975 77.2503 112.724 55 85.2773 55V59C110.515 59 130.975 79.4595 130.975 104.697H134.975ZM85.2773 55C57.8301 55 35.5798 77.2503 35.5798 104.697H39.5798C39.5798 79.4595 60.0393 59 85.2773 59V55ZM35.5798 104.697C35.5798 107.285 35.7778 109.828 36.1597 112.311L40.1132 111.703C39.7621 109.421 39.5798 107.081 39.5798 104.697H35.5798ZM38.5891 110.059C36.1734 109.498 33.6578 109.202 31.0756 109.202V113.202C33.351 113.202 35.5628 113.463 37.6838 113.955L38.5891 110.059ZM31.0756 109.202C12.8085 109.202 -2 124.01 -2 142.277H2C2 126.219 15.0176 113.202 31.0756 113.202V109.202ZM-2 142.277C-2 160.544 12.8085 175.353 31.0756 175.353V171.353C15.0176 171.353 2 158.335 2 142.277H-2ZM31.0756 175.353C31.2044 175.353 31.333 175.352 31.4615 175.351L31.4158 171.351C31.3025 171.352 31.1891 171.353 31.0756 171.353V175.353ZM33.0067 174.592L33.0083 174.59L29.8689 172.112L29.8672 172.114L33.0067 174.592ZM140.563 171.353H31.437V175.353H140.563V171.353ZM138.563 173.351V173.353H142.563V173.351H138.563Z" fill="url(#paint1_linear_394_297)" mask="url(#path-1-inside-1_394_297)"/>
</g>
<g filter="url(#filter1_b_394_297)">
<mask id="path-3-inside-2_394_297" fill="white">
<path fill-rule="evenodd" clip-rule="evenodd" d="M234.5 252.997C234.666 252.999 234.833 253 235 253C258.748 253 278 233.748 278 210C278 186.252 258.748 167 235 167C234.833 167 234.666 167.001 234.5 167.003V167H223.391C223.793 164.057 224 161.053 224 158C224 121.549 194.451 92 158 92C121.549 92 92 121.549 92 158C92 161.439 92.2631 164.817 92.7702 168.115C89.6314 167.386 86.3607 167 83 167C59.2518 167 40 186.252 40 210C40 233.748 59.2518 253 83 253C83.1676 253 83.3351 252.999 83.5023 252.997L83.5 253H234.5V252.997Z"/>
</mask>
<path fill-rule="evenodd" clip-rule="evenodd" d="M234.5 252.997C234.666 252.999 234.833 253 235 253C258.748 253 278 233.748 278 210C278 186.252 258.748 167 235 167C234.833 167 234.666 167.001 234.5 167.003V167H223.391C223.793 164.057 224 161.053 224 158C224 121.549 194.451 92 158 92C121.549 92 92 121.549 92 158C92 161.439 92.2631 164.817 92.7702 168.115C89.6314 167.386 86.3607 167 83 167C59.2518 167 40 186.252 40 210C40 233.748 59.2518 253 83 253C83.1676 253 83.3351 252.999 83.5023 252.997L83.5 253H234.5V252.997Z" fill="url(#paint2_linear_394_297)"/>
<path d="M234.5 252.997L234.523 250.997C233.988 250.991 233.474 251.199 233.094 251.575C232.714 251.951 232.5 252.463 232.5 252.997H234.5ZM234.5 167.003H232.5C232.5 167.537 232.714 168.049 233.094 168.425C233.474 168.801 233.988 169.009 234.523 169.003L234.5 167.003ZM234.5 167H236.5C236.5 165.895 235.605 165 234.5 165V167ZM223.391 167L221.41 166.73C221.332 167.302 221.505 167.88 221.885 168.315C222.265 168.75 222.814 169 223.391 169V167ZM92.7702 168.115L92.3176 170.063C92.9642 170.213 93.6431 170.033 94.1299 169.582C94.6167 169.13 94.8479 168.467 94.747 167.811L92.7702 168.115ZM83.5023 252.997L85.0717 254.237C85.5494 253.632 85.6371 252.807 85.2972 252.115C84.9572 251.423 84.2501 250.988 83.4795 250.997L83.5023 252.997ZM83.5 253L81.9306 251.76C81.4554 252.362 81.3659 253.182 81.7001 253.872C82.0343 254.562 82.7334 255 83.5 255V253ZM234.5 253V255C235.605 255 236.5 254.105 236.5 253H234.5ZM234.477 254.997C234.651 254.999 234.825 255 235 255V251C234.841 251 234.682 250.999 234.523 250.997L234.477 254.997ZM235 255C259.853 255 280 234.853 280 210H276C276 232.644 257.644 251 235 251V255ZM280 210C280 185.147 259.853 165 235 165V169C257.644 169 276 187.356 276 210H280ZM235 165C234.826 165 234.651 165.001 234.477 165.003L234.523 169.003C234.682 169.001 234.841 169 235 169V165ZM232.5 167V167.003H236.5V167H232.5ZM223.391 169H234.5V165H223.391V169ZM225.373 167.27C225.787 164.238 226 161.143 226 158H222C222 160.962 221.799 163.876 221.41 166.73L225.373 167.27ZM226 158C226 120.445 195.555 90 158 90V94C193.346 94 222 122.654 222 158H226ZM158 90C120.445 90 90 120.445 90 158H94C94 122.654 122.654 94 158 94V90ZM90 158C90 161.542 90.2709 165.021 90.7935 168.419L94.747 167.811C94.2553 164.614 94 161.337 94 158H90ZM93.2229 166.167C89.9367 165.403 86.5142 165 83 165V169C86.2073 169 89.3261 169.368 92.3176 170.063L93.2229 166.167ZM83 165C58.1472 165 38 185.147 38 210H42C42 187.356 60.3563 169 83 169V165ZM38 210C38 234.853 58.1472 255 83 255V251C60.3563 251 42 232.644 42 210H38ZM83 255C83.1753 255 83.3503 254.999 83.5251 254.997L83.4795 250.997C83.3198 250.999 83.16 251 83 251V255ZM85.0694 254.24L85.0717 254.237L81.9328 251.757L81.9306 251.76L85.0694 254.24ZM234.5 251H83.5V255H234.5V251ZM232.5 252.997V253H236.5V252.997H232.5Z" fill="url(#paint3_linear_394_297)" mask="url(#path-3-inside-2_394_297)"/>
</g>
<g filter="url(#filter2_b_394_297)">
<mask id="path-5-inside-3_394_297" fill="white">
<path fill-rule="evenodd" clip-rule="evenodd" d="M312.563 208.351C312.683 208.352 312.804 208.353 312.924 208.353C330.087 208.353 344 194.44 344 177.277C344 160.115 330.087 146.202 312.924 146.202C312.804 146.202 312.683 146.202 312.563 146.204V146.202H304.535C304.825 144.075 304.975 141.904 304.975 139.697C304.975 113.355 283.62 92 257.277 92C230.935 92 209.58 113.355 209.58 139.697C209.58 142.183 209.77 144.624 210.136 147.007C207.868 146.48 205.504 146.202 203.076 146.202C185.913 146.202 172 160.115 172 177.277C172 194.44 185.913 208.353 203.076 208.353C203.197 208.353 203.318 208.352 203.439 208.351L203.437 208.353H312.563V208.351Z"/>
</mask>
<path fill-rule="evenodd" clip-rule="evenodd" d="M312.563 208.351C312.683 208.352 312.804 208.353 312.924 208.353C330.087 208.353 344 194.44 344 177.277C344 160.115 330.087 146.202 312.924 146.202C312.804 146.202 312.683 146.202 312.563 146.204V146.202H304.535C304.825 144.075 304.975 141.904 304.975 139.697C304.975 113.355 283.62 92 257.277 92C230.935 92 209.58 113.355 209.58 139.697C209.58 142.183 209.77 144.624 210.136 147.007C207.868 146.48 205.504 146.202 203.076 146.202C185.913 146.202 172 160.115 172 177.277C172 194.44 185.913 208.353 203.076 208.353C203.197 208.353 203.318 208.352 203.439 208.351L203.437 208.353H312.563V208.351Z" fill="url(#paint4_linear_394_297)"/>
<path d="M312.563 208.351L312.586 206.351C312.052 206.345 311.537 206.553 311.157 206.929C310.777 207.304 310.563 207.816 310.563 208.351H312.563ZM312.563 146.204H310.563C310.563 146.738 310.777 147.25 311.157 147.626C311.537 148.002 312.051 148.21 312.586 148.204L312.563 146.204ZM312.563 146.202H314.563C314.563 145.097 313.668 144.202 312.563 144.202V146.202ZM304.535 146.202L302.553 145.931C302.475 146.504 302.649 147.082 303.028 147.517C303.408 147.952 303.957 148.202 304.535 148.202V146.202ZM210.136 147.007L209.684 148.955C210.33 149.106 211.009 148.925 211.496 148.474C211.983 148.023 212.214 147.359 212.113 146.703L210.136 147.007ZM203.439 208.351L205.008 209.59C205.486 208.985 205.573 208.16 205.233 207.468C204.893 206.777 204.186 206.342 203.416 206.351L203.439 208.351ZM203.437 208.353L201.867 207.114C201.392 207.715 201.303 208.535 201.637 209.225C201.971 209.915 202.67 210.353 203.437 210.353V208.353ZM312.563 208.353V210.353C313.668 210.353 314.563 209.458 314.563 208.353H312.563ZM312.54 210.351C312.668 210.352 312.796 210.353 312.924 210.353V206.353C312.811 206.353 312.699 206.352 312.586 206.351L312.54 210.351ZM312.924 210.353C331.192 210.353 346 195.544 346 177.277H342C342 193.335 328.982 206.353 312.924 206.353V210.353ZM346 177.277C346 159.01 331.192 144.202 312.924 144.202V148.202C328.982 148.202 342 161.219 342 177.277H346ZM312.924 144.202C312.796 144.202 312.668 144.202 312.54 144.204L312.586 148.204C312.698 148.202 312.811 148.202 312.924 148.202V144.202ZM310.563 146.202V146.204H314.563V146.202H310.563ZM304.535 148.202H312.563V144.202H304.535V148.202ZM306.517 146.472C306.819 144.256 306.975 141.994 306.975 139.697H302.975C302.975 141.813 302.831 143.894 302.553 145.931L306.517 146.472ZM306.975 139.697C306.975 112.25 284.724 90 257.277 90V94C282.515 94 302.975 114.459 302.975 139.697H306.975ZM257.277 90C229.83 90 207.58 112.25 207.58 139.697H211.58C211.58 114.459 232.039 94 257.277 94V90ZM207.58 139.697C207.58 142.285 207.778 144.828 208.16 147.311L212.113 146.703C211.762 144.421 211.58 142.081 211.58 139.697H207.58ZM210.589 145.059C208.173 144.498 205.658 144.202 203.076 144.202V148.202C205.351 148.202 207.563 148.463 209.684 148.955L210.589 145.059ZM203.076 144.202C184.808 144.202 170 159.01 170 177.277H174C174 161.219 187.018 148.202 203.076 148.202V144.202ZM170 177.277C170 195.544 184.808 210.353 203.076 210.353V206.353C187.018 206.353 174 193.335 174 177.277H170ZM203.076 210.353C203.204 210.353 203.333 210.352 203.461 210.351L203.416 206.351C203.303 206.352 203.189 206.353 203.076 206.353V210.353ZM205.007 209.592L205.008 209.59L201.869 207.112L201.867 207.114L205.007 209.592ZM312.563 206.353H203.437V210.353H312.563V206.353ZM310.563 208.351V208.353H314.563V208.351H310.563Z" fill="url(#paint5_linear_394_297)" mask="url(#path-5-inside-3_394_297)"/>
</g>
<defs>
<filter id="filter0_b_394_297" x="-14" y="43" width="200" height="144.353" filterUnits="userSpaceOnUse" color-interpolation-filters="sRGB">
<feFlood flood-opacity="0" result="BackgroundImageFix"/>
<feGaussianBlur in="BackgroundImageFix" stdDeviation="7"/>
<feComposite in2="SourceAlpha" operator="in" result="effect1_backgroundBlur_394_297"/>
<feBlend mode="normal" in="SourceGraphic" in2="effect1_backgroundBlur_394_297" result="shape"/>
</filter>
<filter id="filter1_b_394_297" x="26" y="78" width="266" height="189" filterUnits="userSpaceOnUse" color-interpolation-filters="sRGB">
<feFlood flood-opacity="0" result="BackgroundImageFix"/>
<feGaussianBlur in="BackgroundImageFix" stdDeviation="7"/>
<feComposite in2="SourceAlpha" operator="in" result="effect1_backgroundBlur_394_297"/>
<feBlend mode="normal" in="SourceGraphic" in2="effect1_backgroundBlur_394_297" result="shape"/>
</filter>
<filter id="filter2_b_394_297" x="158" y="78" width="200" height="144.353" filterUnits="userSpaceOnUse" color-interpolation-filters="sRGB">
<feFlood flood-opacity="0" result="BackgroundImageFix"/>
<feGaussianBlur in="BackgroundImageFix" stdDeviation="7"/>
<feComposite in2="SourceAlpha" operator="in" result="effect1_backgroundBlur_394_297"/>
<feBlend mode="normal" in="SourceGraphic" in2="effect1_backgroundBlur_394_297" result="shape"/>
</filter>
<linearGradient id="paint0_linear_394_297" x1="94" y1="60.5" x2="94" y2="186.5" gradientUnits="userSpaceOnUse">
<stop stop-color="white"/>
<stop offset="1" stop-color="white" stop-opacity="0"/>
</linearGradient>
<linearGradient id="paint1_linear_394_297" x1="86" y1="57" x2="86" y2="173.353" gradientUnits="userSpaceOnUse">
<stop stop-color="white"/>
<stop offset="1" stop-color="white" stop-opacity="0"/>
</linearGradient>
<linearGradient id="paint2_linear_394_297" x1="159" y1="40.5" x2="159" y2="275.5" gradientUnits="userSpaceOnUse">
<stop stop-color="white"/>
<stop offset="1" stop-color="white" stop-opacity="0"/>
</linearGradient>
<linearGradient id="paint3_linear_394_297" x1="159" y1="92" x2="159" y2="253" gradientUnits="userSpaceOnUse">
<stop stop-color="white"/>
<stop offset="1" stop-color="white" stop-opacity="0"/>
</linearGradient>
<linearGradient id="paint4_linear_394_297" x1="266" y1="95.5" x2="266" y2="221.5" gradientUnits="userSpaceOnUse">
<stop stop-color="white"/>
<stop offset="1" stop-color="white" stop-opacity="0"/>
</linearGradient>
<linearGradient id="paint5_linear_394_297" x1="258" y1="92" x2="258" y2="208.353" gradientUnits="userSpaceOnUse">
<stop stop-color="white"/>
<stop offset="1" stop-color="white" stop-opacity="0"/>
</linearGradient>
</defs>
</svg>
