<svg width="344" height="309" viewBox="0 0 344 309" fill="none" xmlns="http://www.w3.org/2000/svg">
<g filter="url(#filter0_b_394_299)">
<mask id="path-1-inside-1_394_299" fill="white">
<path fill-rule="evenodd" clip-rule="evenodd" d="M214.5 207.997C214.666 207.999 214.833 208 215 208C238.748 208 258 188.748 258 165C258 141.252 238.748 122 215 122C214.833 122 214.666 122.001 214.5 122.003V122H203.391C203.793 119.057 204 116.053 204 113C204 76.5492 174.451 47 138 47C101.549 47 72 76.5492 72 113C72 116.439 72.2631 119.817 72.7702 123.115C69.6314 122.386 66.3607 122 63 122C39.2518 122 20 141.252 20 165C20 188.748 39.2518 208 63 208C63.1676 208 63.3351 207.999 63.5023 207.997L63.5 208H214.5V207.997Z"/>
</mask>
<path fill-rule="evenodd" clip-rule="evenodd" d="M214.5 207.997C214.666 207.999 214.833 208 215 208C238.748 208 258 188.748 258 165C258 141.252 238.748 122 215 122C214.833 122 214.666 122.001 214.5 122.003V122H203.391C203.793 119.057 204 116.053 204 113C204 76.5492 174.451 47 138 47C101.549 47 72 76.5492 72 113C72 116.439 72.2631 119.817 72.7702 123.115C69.6314 122.386 66.3607 122 63 122C39.2518 122 20 141.252 20 165C20 188.748 39.2518 208 63 208C63.1676 208 63.3351 207.999 63.5023 207.997L63.5 208H214.5V207.997Z" fill="url(#paint0_linear_394_299)"/>
<path d="M214.5 207.997L214.523 205.997C213.988 205.991 213.474 206.199 213.094 206.575C212.714 206.951 212.5 207.463 212.5 207.997H214.5ZM214.5 122.003H212.5C212.5 122.537 212.714 123.049 213.094 123.425C213.474 123.801 213.988 124.009 214.523 124.003L214.5 122.003ZM214.5 122H216.5C216.5 120.895 215.605 120 214.5 120V122ZM203.391 122L201.41 121.73C201.332 122.302 201.505 122.88 201.885 123.315C202.265 123.75 202.814 124 203.391 124V122ZM72.7702 123.115L72.3176 125.063C72.9642 125.213 73.6431 125.033 74.1299 124.582C74.6167 124.13 74.8479 123.467 74.747 122.811L72.7702 123.115ZM63.5023 207.997L65.0717 209.237C65.5494 208.632 65.6371 207.807 65.2972 207.115C64.9572 206.423 64.2501 205.988 63.4795 205.997L63.5023 207.997ZM63.5 208L61.9306 206.76C61.4554 207.362 61.3659 208.182 61.7001 208.872C62.0343 209.562 62.7334 210 63.5 210V208ZM214.5 208V210C215.605 210 216.5 209.105 216.5 208H214.5ZM214.477 209.997C214.651 209.999 214.825 210 215 210V206C214.841 206 214.682 205.999 214.523 205.997L214.477 209.997ZM215 210C239.853 210 260 189.853 260 165H256C256 187.644 237.644 206 215 206V210ZM260 165C260 140.147 239.853 120 215 120V124C237.644 124 256 142.356 256 165H260ZM215 120C214.826 120 214.651 120.001 214.477 120.003L214.523 124.003C214.682 124.001 214.841 124 215 124V120ZM212.5 122V122.003H216.5V122H212.5ZM203.391 124H214.5V120H203.391V124ZM205.373 122.27C205.787 119.238 206 116.143 206 113H202C202 115.962 201.799 118.876 201.41 121.73L205.373 122.27ZM206 113C206 75.4446 175.555 45 138 45V49C173.346 49 202 77.6538 202 113H206ZM138 45C100.445 45 70 75.4446 70 113H74C74 77.6538 102.654 49 138 49V45ZM70 113C70 116.542 70.2709 120.021 70.7935 123.419L74.747 122.811C74.2553 119.614 74 116.337 74 113H70ZM73.2229 121.167C69.9367 120.403 66.5142 120 63 120V124C66.2073 124 69.3261 124.368 72.3176 125.063L73.2229 121.167ZM63 120C38.1472 120 18 140.147 18 165H22C22 142.356 40.3563 124 63 124V120ZM18 165C18 189.853 38.1472 210 63 210V206C40.3563 206 22 187.644 22 165H18ZM63 210C63.1753 210 63.3503 209.999 63.5251 209.997L63.4795 205.997C63.3198 205.999 63.16 206 63 206V210ZM65.0694 209.24L65.0717 209.237L61.9328 206.757L61.9306 206.76L65.0694 209.24ZM214.5 206H63.5V210H214.5V206ZM212.5 207.997V208H216.5V207.997H212.5Z" fill="url(#paint1_linear_394_299)" mask="url(#path-1-inside-1_394_299)"/>
</g>
<g filter="url(#filter1_b_394_299)">
<mask id="path-3-inside-2_394_299" fill="white">
<path fill-rule="evenodd" clip-rule="evenodd" d="M292.563 163.351C292.683 163.352 292.804 163.353 292.924 163.353C310.087 163.353 324 149.44 324 132.277C324 115.115 310.087 101.202 292.924 101.202C292.804 101.202 292.683 101.202 292.563 101.204V101.202H284.535C284.825 99.075 284.975 96.9037 284.975 94.6975C284.975 68.3549 263.62 47 237.277 47C210.935 47 189.58 68.3549 189.58 94.6975C189.58 97.1831 189.77 99.6243 190.136 102.007C187.868 101.48 185.504 101.202 183.076 101.202C165.913 101.202 152 115.115 152 132.277C152 149.44 165.913 163.353 183.076 163.353C183.197 163.353 183.318 163.352 183.439 163.351L183.437 163.353H292.563V163.351Z"/>
</mask>
<path fill-rule="evenodd" clip-rule="evenodd" d="M292.563 163.351C292.683 163.352 292.804 163.353 292.924 163.353C310.087 163.353 324 149.44 324 132.277C324 115.115 310.087 101.202 292.924 101.202C292.804 101.202 292.683 101.202 292.563 101.204V101.202H284.535C284.825 99.075 284.975 96.9037 284.975 94.6975C284.975 68.3549 263.62 47 237.277 47C210.935 47 189.58 68.3549 189.58 94.6975C189.58 97.1831 189.77 99.6243 190.136 102.007C187.868 101.48 185.504 101.202 183.076 101.202C165.913 101.202 152 115.115 152 132.277C152 149.44 165.913 163.353 183.076 163.353C183.197 163.353 183.318 163.352 183.439 163.351L183.437 163.353H292.563V163.351Z" fill="url(#paint2_linear_394_299)"/>
<path d="M292.563 163.351L292.586 161.351C292.052 161.345 291.537 161.553 291.157 161.929C290.777 162.304 290.563 162.816 290.563 163.351H292.563ZM292.563 101.204H290.563C290.563 101.738 290.777 102.25 291.157 102.626C291.537 103.002 292.051 103.21 292.586 103.204L292.563 101.204ZM292.563 101.202H294.563C294.563 100.097 293.668 99.2017 292.563 99.2017V101.202ZM284.535 101.202L282.553 100.931C282.475 101.504 282.649 102.082 283.028 102.517C283.408 102.952 283.957 103.202 284.535 103.202V101.202ZM190.136 102.007L189.684 103.955C190.33 104.106 191.009 103.925 191.496 103.474C191.983 103.023 192.214 102.359 192.113 101.703L190.136 102.007ZM183.439 163.351L185.008 164.59C185.486 163.985 185.573 163.16 185.233 162.468C184.893 161.777 184.186 161.342 183.416 161.351L183.439 163.351ZM183.437 163.353L181.867 162.114C181.392 162.715 181.303 163.535 181.637 164.225C181.971 164.915 182.67 165.353 183.437 165.353V163.353ZM292.563 163.353V165.353C293.668 165.353 294.563 164.458 294.563 163.353H292.563ZM292.54 165.351C292.668 165.352 292.796 165.353 292.924 165.353V161.353C292.811 161.353 292.699 161.352 292.586 161.351L292.54 165.351ZM292.924 165.353C311.192 165.353 326 150.544 326 132.277H322C322 148.335 308.982 161.353 292.924 161.353V165.353ZM326 132.277C326 114.01 311.192 99.2017 292.924 99.2017V103.202C308.982 103.202 322 116.219 322 132.277H326ZM292.924 99.2017C292.796 99.2017 292.668 99.2024 292.54 99.2039L292.586 103.204C292.698 103.202 292.811 103.202 292.924 103.202V99.2017ZM290.563 101.202V101.204H294.563V101.202H290.563ZM284.535 103.202H292.563V99.2017H284.535V103.202ZM286.517 101.472C286.819 99.2559 286.975 96.9944 286.975 94.6975H282.975C282.975 96.8131 282.831 98.8941 282.553 100.931L286.517 101.472ZM286.975 94.6975C286.975 67.2503 264.724 45 237.277 45V49C262.515 49 282.975 69.4595 282.975 94.6975H286.975ZM237.277 45C209.83 45 187.58 67.2503 187.58 94.6975H191.58C191.58 69.4595 212.039 49 237.277 49V45ZM187.58 94.6975C187.58 97.2852 187.778 99.8281 188.16 102.311L192.113 101.703C191.762 99.4205 191.58 97.081 191.58 94.6975H187.58ZM190.589 100.059C188.173 99.498 185.658 99.2017 183.076 99.2017V103.202C185.351 103.202 187.563 103.463 189.684 103.955L190.589 100.059ZM183.076 99.2017C164.808 99.2017 150 114.01 150 132.277H154C154 116.219 167.018 103.202 183.076 103.202V99.2017ZM150 132.277C150 150.544 164.808 165.353 183.076 165.353V161.353C167.018 161.353 154 148.335 154 132.277H150ZM183.076 165.353C183.204 165.353 183.333 165.352 183.461 165.351L183.416 161.351C183.303 161.352 183.189 161.353 183.076 161.353V165.353ZM185.007 164.592L185.008 164.59L181.869 162.112L181.867 162.114L185.007 164.592ZM292.563 161.353H183.437V165.353H292.563V161.353ZM290.563 163.351V163.353H294.563V163.351H290.563Z" fill="url(#paint3_linear_394_299)" mask="url(#path-3-inside-2_394_299)"/>
</g>
<g filter="url(#filter2_bd_394_299)">
<path d="M146.181 184.486L147.355 200.919C147.964 209.447 139.831 215.936 131.651 213.448C123.471 210.959 120.328 201.041 125.583 194.296L135.709 181.3C139.01 177.062 145.799 179.127 146.181 184.486Z" fill="url(#paint4_linear_394_299)" stroke="url(#paint5_linear_394_299)" stroke-width="2"/>
<path d="M203.688 184.486L204.862 200.919C205.471 209.447 197.338 215.936 189.158 213.448C180.978 210.959 177.835 201.041 183.09 194.296L193.215 181.3C196.517 177.062 203.306 179.127 203.688 184.486Z" fill="url(#paint6_linear_394_299)" stroke="url(#paint7_linear_394_299)" stroke-width="2"/>
<path d="M164.688 237.486L165.862 253.919C166.471 262.447 158.338 268.936 150.158 266.448C141.978 263.959 138.835 254.041 144.09 247.296L154.215 234.3C157.517 230.062 164.306 232.127 164.688 237.486Z" fill="url(#paint8_linear_394_299)" stroke="url(#paint9_linear_394_299)" stroke-width="2"/>
</g>
<defs>
<filter id="filter0_b_394_299" x="6" y="33" width="266" height="189" filterUnits="userSpaceOnUse" color-interpolation-filters="sRGB">
<feFlood flood-opacity="0" result="BackgroundImageFix"/>
<feGaussianBlur in="BackgroundImageFix" stdDeviation="7"/>
<feComposite in2="SourceAlpha" operator="in" result="effect1_backgroundBlur_394_299"/>
<feBlend mode="normal" in="SourceGraphic" in2="effect1_backgroundBlur_394_299" result="shape"/>
</filter>
<filter id="filter1_b_394_299" x="138" y="33" width="200" height="144.353" filterUnits="userSpaceOnUse" color-interpolation-filters="sRGB">
<feFlood flood-opacity="0" result="BackgroundImageFix"/>
<feGaussianBlur in="BackgroundImageFix" stdDeviation="7"/>
<feComposite in2="SourceAlpha" operator="in" result="effect1_backgroundBlur_394_299"/>
<feBlend mode="normal" in="SourceGraphic" in2="effect1_backgroundBlur_394_299" result="shape"/>
</filter>
<filter id="filter2_bd_394_299" x="81.0024" y="130.031" width="165.892" height="171.955" filterUnits="userSpaceOnUse" color-interpolation-filters="sRGB">
<feFlood flood-opacity="0" result="BackgroundImageFix"/>
<feGaussianBlur in="BackgroundImageFix" stdDeviation="7"/>
<feComposite in2="SourceAlpha" operator="in" result="effect1_backgroundBlur_394_299"/>
<feColorMatrix in="SourceAlpha" type="matrix" values="0 0 0 0 0 0 0 0 0 0 0 0 0 0 0 0 0 0 127 0" result="hardAlpha"/>
<feOffset dy="-7"/>
<feGaussianBlur stdDeviation="20.5"/>
<feComposite in2="hardAlpha" operator="out"/>
<feColorMatrix type="matrix" values="0 0 0 0 0.1375 0 0 0 0 0.74125 0 0 0 0 1 0 0 0 0.3 0"/>
<feBlend mode="normal" in2="effect1_backgroundBlur_394_299" result="effect2_dropShadow_394_299"/>
<feBlend mode="normal" in="SourceGraphic" in2="effect2_dropShadow_394_299" result="shape"/>
</filter>
<linearGradient id="paint0_linear_394_299" x1="139" y1="-4.5" x2="139" y2="230.5" gradientUnits="userSpaceOnUse">
<stop stop-color="white"/>
<stop offset="1" stop-color="white" stop-opacity="0"/>
</linearGradient>
<linearGradient id="paint1_linear_394_299" x1="139" y1="47" x2="139" y2="208" gradientUnits="userSpaceOnUse">
<stop stop-color="white"/>
<stop offset="1" stop-color="white" stop-opacity="0"/>
</linearGradient>
<linearGradient id="paint2_linear_394_299" x1="246" y1="50.5" x2="246" y2="176.5" gradientUnits="userSpaceOnUse">
<stop stop-color="white"/>
<stop offset="1" stop-color="white" stop-opacity="0"/>
</linearGradient>
<linearGradient id="paint3_linear_394_299" x1="238" y1="47" x2="238" y2="163.353" gradientUnits="userSpaceOnUse">
<stop stop-color="white"/>
<stop offset="1" stop-color="white" stop-opacity="0"/>
</linearGradient>
<linearGradient id="paint4_linear_394_299" x1="145.906" y1="166.585" x2="131.36" y2="214.404" gradientUnits="userSpaceOnUse">
<stop stop-color="#138EFF"/>
<stop offset="1" stop-color="#00E0FF"/>
</linearGradient>
<linearGradient id="paint5_linear_394_299" x1="145.906" y1="166.585" x2="131.36" y2="214.404" gradientUnits="userSpaceOnUse">
<stop stop-color="white"/>
<stop offset="1" stop-color="white" stop-opacity="0"/>
</linearGradient>
<linearGradient id="paint6_linear_394_299" x1="203.413" y1="166.585" x2="188.867" y2="214.404" gradientUnits="userSpaceOnUse">
<stop stop-color="#138EFF"/>
<stop offset="1" stop-color="#00E0FF"/>
</linearGradient>
<linearGradient id="paint7_linear_394_299" x1="203.413" y1="166.585" x2="188.867" y2="214.404" gradientUnits="userSpaceOnUse">
<stop stop-color="white"/>
<stop offset="1" stop-color="white" stop-opacity="0"/>
</linearGradient>
<linearGradient id="paint8_linear_394_299" x1="164.413" y1="219.585" x2="149.867" y2="267.404" gradientUnits="userSpaceOnUse">
<stop stop-color="#138EFF"/>
<stop offset="1" stop-color="#00E0FF"/>
</linearGradient>
<linearGradient id="paint9_linear_394_299" x1="164.413" y1="219.585" x2="149.867" y2="267.404" gradientUnits="userSpaceOnUse">
<stop stop-color="white"/>
<stop offset="1" stop-color="white" stop-opacity="0"/>
</linearGradient>
</defs>
</svg>
