<svg width="286" height="263" viewBox="0 0 286 263" fill="none" xmlns="http://www.w3.org/2000/svg">
<g filter="url(#filter0_f_265_309)">
<circle cx="120.62" cy="120.62" r="76.6203" fill="#FFC701" fill-opacity="0.5"/>
</g>
<circle cx="120.62" cy="123.132" r="73.1083" fill="url(#paint0_linear_265_309)" stroke="url(#paint1_linear_265_309)" stroke-width="2"/>
<mask id="mask0_265_309" style="mask-type:alpha" maskUnits="userSpaceOnUse" x="46" y="90" width="149" height="108">
<path d="M194.729 123.132C194.729 164.061 161.549 197.241 120.62 197.241C79.6914 197.241 46.512 164.061 46.512 123.132C46.512 82.2036 74.0391 91.7306 114.968 91.7306C155.897 91.7306 194.729 82.2036 194.729 123.132Z" fill="url(#paint2_linear_265_309)"/>
</mask>
<g mask="url(#mask0_265_309)">
<g filter="url(#filter1_f_265_309)">
<path fill-rule="evenodd" clip-rule="evenodd" d="M233.667 258.788C233.667 288.617 209.486 312.799 179.656 312.799C179.446 312.799 179.237 312.798 179.028 312.795V312.799H-10.6389L-10.6365 312.796C-10.8464 312.798 -11.0567 312.8 -11.2672 312.8C-41.0967 312.8 -65.2783 288.618 -65.2783 258.789C-65.2783 228.959 -41.0967 204.777 -11.2672 204.777C14.4449 204.777 35.9607 222.744 41.4105 246.808L59.7012 223.618L116.853 204.777H179.028V204.78C179.237 204.778 179.446 204.777 179.656 204.777C209.486 204.777 233.667 228.958 233.667 258.788Z" fill="#E18700"/>
</g>
</g>
<g filter="url(#filter2_b_265_309)">
<mask id="path-5-inside-1_265_309" fill="white">
<path fill-rule="evenodd" clip-rule="evenodd" d="M245.678 262.997C245.829 262.999 245.981 263 246.133 263C267.69 263 285.166 245.524 285.166 223.967C285.166 202.409 267.69 184.933 246.133 184.933C245.981 184.933 245.829 184.934 245.678 184.936V184.933H235.595C235.959 182.262 236.147 179.535 236.147 176.763C236.147 143.675 209.324 116.852 176.236 116.852C143.147 116.852 116.324 143.675 116.324 176.763C116.324 179.885 116.563 182.952 117.023 185.945C114.174 185.283 111.205 184.933 108.155 184.933C86.5972 184.933 69.1214 202.409 69.1214 223.967C69.1214 245.524 86.5972 263 108.155 263C108.307 263 108.458 262.999 108.61 262.997L108.608 263H245.678V262.997Z"/>
</mask>
<path fill-rule="evenodd" clip-rule="evenodd" d="M245.678 262.997C245.829 262.999 245.981 263 246.133 263C267.69 263 285.166 245.524 285.166 223.967C285.166 202.409 267.69 184.933 246.133 184.933C245.981 184.933 245.829 184.934 245.678 184.936V184.933H235.595C235.959 182.262 236.147 179.535 236.147 176.763C236.147 143.675 209.324 116.852 176.236 116.852C143.147 116.852 116.324 143.675 116.324 176.763C116.324 179.885 116.563 182.952 117.023 185.945C114.174 185.283 111.205 184.933 108.155 184.933C86.5972 184.933 69.1214 202.409 69.1214 223.967C69.1214 245.524 86.5972 263 108.155 263C108.307 263 108.458 262.999 108.61 262.997L108.608 263H245.678V262.997Z" fill="url(#paint3_linear_265_309)"/>
<path d="M245.678 262.997L245.701 260.997C245.166 260.991 244.652 261.199 244.272 261.575C243.892 261.951 243.678 262.463 243.678 262.997H245.678ZM245.678 184.936H243.678C243.678 185.47 243.892 185.983 244.272 186.358C244.652 186.734 245.166 186.942 245.701 186.936L245.678 184.936ZM245.678 184.933H247.678C247.678 183.829 246.782 182.933 245.678 182.933V184.933ZM235.595 184.933L233.613 184.663C233.535 185.235 233.708 185.813 234.088 186.249C234.468 186.684 235.017 186.933 235.595 186.933V184.933ZM117.023 185.945L116.571 187.893C117.217 188.044 117.896 187.863 118.383 187.412C118.87 186.961 119.101 186.297 119 185.641L117.023 185.945ZM108.61 262.997L110.179 264.237C110.657 263.632 110.745 262.807 110.405 262.115C110.065 261.423 109.358 260.989 108.587 260.997L108.61 262.997ZM108.608 263L107.038 261.76C106.563 262.362 106.474 263.182 106.808 263.872C107.142 264.562 107.841 265 108.608 265V263ZM245.678 263V265C246.782 265 247.678 264.104 247.678 263H245.678ZM245.655 264.997C245.814 264.999 245.973 265 246.133 265V261C245.989 261 245.844 260.999 245.701 260.997L245.655 264.997ZM246.133 265C268.795 265 287.166 246.629 287.166 223.967H283.166C283.166 244.42 266.586 261 246.133 261V265ZM287.166 223.967C287.166 201.305 268.795 182.933 246.133 182.933V186.933C266.586 186.933 283.166 203.514 283.166 223.967H287.166ZM246.133 182.933C245.973 182.933 245.814 182.934 245.655 182.936L245.701 186.936C245.844 186.934 245.988 186.933 246.133 186.933V182.933ZM243.678 184.933V184.936H247.678V184.933H243.678ZM235.595 186.933H245.678V182.933H235.595V186.933ZM237.576 185.204C237.953 182.443 238.147 179.625 238.147 176.763H234.147C234.147 179.444 233.965 182.081 233.613 184.663L237.576 185.204ZM238.147 176.763C238.147 142.57 210.428 114.852 176.236 114.852V118.852C208.219 118.852 234.147 144.78 234.147 176.763H238.147ZM176.236 114.852C142.043 114.852 114.324 142.57 114.324 176.763H118.324C118.324 144.78 144.252 118.852 176.236 118.852V114.852ZM114.324 176.763C114.324 179.988 114.571 183.156 115.047 186.249L119 185.641C118.555 182.748 118.324 179.783 118.324 176.763H114.324ZM117.476 183.997C114.479 183.301 111.359 182.933 108.155 182.933V186.933C111.052 186.933 113.869 187.266 116.571 187.893L117.476 183.997ZM108.155 182.933C85.4926 182.933 67.1214 201.305 67.1214 223.967H71.1214C71.1214 203.514 87.7017 186.933 108.155 186.933V182.933ZM67.1214 223.967C67.1214 246.629 85.4926 265 108.155 265V261C87.7017 261 71.1214 244.42 71.1214 223.967H67.1214ZM108.155 265C108.314 265 108.474 264.999 108.633 264.997L108.587 260.997C108.443 260.999 108.299 261 108.155 261V265ZM110.177 264.239L110.179 264.237L107.04 261.758L107.038 261.76L110.177 264.239ZM245.678 261H108.608V265H245.678V261ZM243.678 262.997V263H247.678V262.997H243.678Z" fill="url(#paint4_linear_265_309)" mask="url(#path-5-inside-1_265_309)"/>
</g>
<defs>
<filter id="filter0_f_265_309" x="0" y="0" width="241.241" height="241.241" filterUnits="userSpaceOnUse" color-interpolation-filters="sRGB">
<feFlood flood-opacity="0" result="BackgroundImageFix"/>
<feBlend mode="normal" in="SourceGraphic" in2="BackgroundImageFix" result="shape"/>
<feGaussianBlur stdDeviation="22" result="effect1_foregroundBlur_265_309"/>
</filter>
<filter id="filter1_f_265_309" x="-79.2783" y="190.777" width="326.945" height="136.023" filterUnits="userSpaceOnUse" color-interpolation-filters="sRGB">
<feFlood flood-opacity="0" result="BackgroundImageFix"/>
<feBlend mode="normal" in="SourceGraphic" in2="BackgroundImageFix" result="shape"/>
<feGaussianBlur stdDeviation="7" result="effect1_foregroundBlur_265_309"/>
</filter>
<filter id="filter2_b_265_309" x="55.1214" y="102.852" width="244.045" height="174.148" filterUnits="userSpaceOnUse" color-interpolation-filters="sRGB">
<feFlood flood-opacity="0" result="BackgroundImageFix"/>
<feGaussianBlur in="BackgroundImageFix" stdDeviation="7"/>
<feComposite in2="SourceAlpha" operator="in" result="effect1_backgroundBlur_265_309"/>
<feBlend mode="normal" in="SourceGraphic" in2="effect1_backgroundBlur_265_309" result="shape"/>
</filter>
<linearGradient id="paint0_linear_265_309" x1="120.62" y1="49.0242" x2="120.62" y2="197.241" gradientUnits="userSpaceOnUse">
<stop stop-color="#FFE600"/>
<stop offset="1" stop-color="#FF7A00"/>
</linearGradient>
<linearGradient id="paint1_linear_265_309" x1="120.62" y1="49.0242" x2="120.62" y2="197.241" gradientUnits="userSpaceOnUse">
<stop stop-color="white"/>
<stop offset="1" stop-color="white" stop-opacity="0"/>
</linearGradient>
<linearGradient id="paint2_linear_265_309" x1="120.62" y1="49.0242" x2="120.62" y2="197.241" gradientUnits="userSpaceOnUse">
<stop stop-color="#FFD600"/>
<stop offset="1" stop-color="#FF7A00"/>
</linearGradient>
<linearGradient id="paint3_linear_265_309" x1="187.192" y1="121.248" x2="187.192" y2="279.514" gradientUnits="userSpaceOnUse">
<stop stop-color="white"/>
<stop offset="1" stop-color="white" stop-opacity="0"/>
</linearGradient>
<linearGradient id="paint4_linear_265_309" x1="177.144" y1="116.852" x2="177.144" y2="263" gradientUnits="userSpaceOnUse">
<stop stop-color="white"/>
<stop offset="1" stop-color="white" stop-opacity="0"/>
</linearGradient>
</defs>
</svg>
