<svg width="344" height="310" viewBox="0 0 344 310" fill="none" xmlns="http://www.w3.org/2000/svg">
<g filter="url(#filter0_f_394_295)">
<circle cx="127.62" cy="120.62" r="76.6203" fill="#FFC701" fill-opacity="0.5"/>
</g>
<circle cx="127.62" cy="123.132" r="73.1083" fill="url(#paint0_linear_394_295)" stroke="url(#paint1_linear_394_295)" stroke-width="2"/>
<mask id="mask0_394_295" style="mask-type:alpha" maskUnits="userSpaceOnUse" x="53" y="90" width="149" height="108">
<path d="M201.729 123.133C201.729 164.062 168.549 197.241 127.62 197.241C86.6914 197.241 53.512 164.062 53.512 123.133C53.512 82.2038 81.0391 91.7309 121.968 91.7309C162.897 91.7309 201.729 82.2038 201.729 123.133Z" fill="url(#paint2_linear_394_295)"/>
</mask>
<g mask="url(#mask0_394_295)">
<g filter="url(#filter1_f_394_295)">
<path fill-rule="evenodd" clip-rule="evenodd" d="M240.667 258.788C240.667 288.618 216.486 312.8 186.656 312.8C186.446 312.8 186.237 312.798 186.028 312.796V312.8H-3.6389L-3.63651 312.796C-3.84645 312.799 -4.05667 312.8 -4.26717 312.8C-34.0967 312.8 -58.2783 288.619 -58.2783 258.789C-58.2783 228.96 -34.0967 204.778 -4.26717 204.778C21.4449 204.778 42.9607 222.745 48.4105 246.808L66.7012 223.618L123.853 204.777H186.028V204.781C186.237 204.779 186.446 204.777 186.656 204.777C216.486 204.777 240.667 228.959 240.667 258.788Z" fill="#E18700"/>
</g>
</g>
<g filter="url(#filter2_b_394_295)">
<mask id="path-5-inside-1_394_295" fill="white">
<path fill-rule="evenodd" clip-rule="evenodd" d="M252.678 262.998C252.829 262.999 252.981 263 253.133 263C274.69 263 292.166 245.524 292.166 223.967C292.166 202.409 274.69 184.934 253.133 184.934C252.981 184.934 252.829 184.935 252.678 184.936V184.934H242.595C242.959 182.262 243.147 179.535 243.147 176.764C243.147 143.675 216.324 116.852 183.236 116.852C150.147 116.852 123.324 143.675 123.324 176.764C123.324 179.886 123.563 182.952 124.023 185.946C121.174 185.284 118.205 184.934 115.155 184.934C93.5971 184.934 76.1213 202.409 76.1213 223.967C76.1213 245.524 93.5971 263 115.155 263C115.307 263 115.458 262.999 115.61 262.998L115.608 263H252.678V262.998Z"/>
</mask>
<path fill-rule="evenodd" clip-rule="evenodd" d="M252.678 262.998C252.829 262.999 252.981 263 253.133 263C274.69 263 292.166 245.524 292.166 223.967C292.166 202.409 274.69 184.934 253.133 184.934C252.981 184.934 252.829 184.935 252.678 184.936V184.934H242.595C242.959 182.262 243.147 179.535 243.147 176.764C243.147 143.675 216.324 116.852 183.236 116.852C150.147 116.852 123.324 143.675 123.324 176.764C123.324 179.886 123.563 182.952 124.023 185.946C121.174 185.284 118.205 184.934 115.155 184.934C93.5971 184.934 76.1213 202.409 76.1213 223.967C76.1213 245.524 93.5971 263 115.155 263C115.307 263 115.458 262.999 115.61 262.998L115.608 263H252.678V262.998Z" fill="url(#paint3_linear_394_295)"/>
<path d="M252.678 262.998L252.701 260.998C252.166 260.992 251.652 261.2 251.272 261.575C250.892 261.951 250.678 262.463 250.678 262.998H252.678ZM252.678 184.936H250.678C250.678 185.471 250.892 185.983 251.272 186.359C251.652 186.734 252.166 186.942 252.701 186.936L252.678 184.936ZM252.678 184.934H254.678C254.678 183.829 253.782 182.934 252.678 182.934V184.934ZM242.595 184.934L240.613 184.663C240.535 185.236 240.708 185.814 241.088 186.249C241.468 186.684 242.017 186.934 242.595 186.934V184.934ZM124.023 185.946L123.571 187.894C124.217 188.044 124.896 187.864 125.383 187.412C125.87 186.961 126.101 186.298 126 185.642L124.023 185.946ZM115.61 262.998L117.179 264.237C117.657 263.632 117.745 262.807 117.405 262.115C117.065 261.424 116.358 260.989 115.587 260.998L115.61 262.998ZM115.608 263L114.038 261.761C113.563 262.362 113.474 263.182 113.808 263.872C114.142 264.562 114.841 265 115.608 265V263ZM252.678 263V265C253.782 265 254.678 264.105 254.678 263H252.678ZM252.655 264.997C252.814 264.999 252.973 265 253.133 265V261C252.988 261 252.844 260.999 252.701 260.998L252.655 264.997ZM253.133 265C275.795 265 294.166 246.629 294.166 223.967H290.166C290.166 244.42 273.586 261 253.133 261V265ZM294.166 223.967C294.166 201.305 275.795 182.934 253.133 182.934V186.934C273.586 186.934 290.166 203.514 290.166 223.967H294.166ZM253.133 182.934C252.973 182.934 252.814 182.935 252.655 182.936L252.701 186.936C252.844 186.935 252.988 186.934 253.133 186.934V182.934ZM250.678 184.934V184.936H254.678V184.934H250.678ZM242.595 186.934H252.678V182.934H242.595V186.934ZM244.576 185.204C244.953 182.443 245.147 179.626 245.147 176.764H241.147C241.147 179.444 240.965 182.081 240.613 184.663L244.576 185.204ZM245.147 176.764C245.147 142.571 217.428 114.852 183.236 114.852V118.852C215.219 118.852 241.147 144.78 241.147 176.764H245.147ZM183.236 114.852C149.043 114.852 121.324 142.571 121.324 176.764H125.324C125.324 144.78 151.252 118.852 183.236 118.852V114.852ZM121.324 176.764C121.324 179.988 121.571 183.156 122.047 186.25L126 185.642C125.555 182.748 125.324 179.784 125.324 176.764H121.324ZM124.476 183.998C121.479 183.301 118.359 182.934 115.155 182.934V186.934C118.052 186.934 120.869 187.266 123.571 187.894L124.476 183.998ZM115.155 182.934C92.4926 182.934 74.1213 201.305 74.1213 223.967H78.1213C78.1213 203.514 94.7017 186.934 115.155 186.934V182.934ZM74.1213 223.967C74.1213 246.629 92.4926 265 115.155 265V261C94.7017 261 78.1213 244.42 78.1213 223.967H74.1213ZM115.155 265C115.314 265 115.473 264.999 115.633 264.997L115.587 260.998C115.443 260.999 115.299 261 115.155 261V265ZM117.177 264.24L117.179 264.237L114.04 261.758L114.038 261.761L117.177 264.24ZM252.678 261H115.608V265H252.678V261ZM250.678 262.998V263H254.678V262.998H250.678Z" fill="url(#paint4_linear_394_295)" mask="url(#path-5-inside-1_394_295)"/>
</g>
<defs>
<filter id="filter0_f_394_295" x="7" y="0" width="241.241" height="241.241" filterUnits="userSpaceOnUse" color-interpolation-filters="sRGB">
<feFlood flood-opacity="0" result="BackgroundImageFix"/>
<feBlend mode="normal" in="SourceGraphic" in2="BackgroundImageFix" result="shape"/>
<feGaussianBlur stdDeviation="22" result="effect1_foregroundBlur_394_295"/>
</filter>
<filter id="filter1_f_394_295" x="-72.2783" y="190.777" width="326.945" height="136.023" filterUnits="userSpaceOnUse" color-interpolation-filters="sRGB">
<feFlood flood-opacity="0" result="BackgroundImageFix"/>
<feBlend mode="normal" in="SourceGraphic" in2="BackgroundImageFix" result="shape"/>
<feGaussianBlur stdDeviation="7" result="effect1_foregroundBlur_394_295"/>
</filter>
<filter id="filter2_b_394_295" x="62.1213" y="102.852" width="244.045" height="174.148" filterUnits="userSpaceOnUse" color-interpolation-filters="sRGB">
<feFlood flood-opacity="0" result="BackgroundImageFix"/>
<feGaussianBlur in="BackgroundImageFix" stdDeviation="7"/>
<feComposite in2="SourceAlpha" operator="in" result="effect1_backgroundBlur_394_295"/>
<feBlend mode="normal" in="SourceGraphic" in2="effect1_backgroundBlur_394_295" result="shape"/>
</filter>
<linearGradient id="paint0_linear_394_295" x1="127.62" y1="49.0239" x2="127.62" y2="197.241" gradientUnits="userSpaceOnUse">
<stop stop-color="#FFE600"/>
<stop offset="1" stop-color="#FF7A00"/>
</linearGradient>
<linearGradient id="paint1_linear_394_295" x1="127.62" y1="49.0239" x2="127.62" y2="197.241" gradientUnits="userSpaceOnUse">
<stop stop-color="white"/>
<stop offset="1" stop-color="white" stop-opacity="0"/>
</linearGradient>
<linearGradient id="paint2_linear_394_295" x1="127.62" y1="49.0244" x2="127.62" y2="197.241" gradientUnits="userSpaceOnUse">
<stop stop-color="#FFD600"/>
<stop offset="1" stop-color="#FF7A00"/>
</linearGradient>
<linearGradient id="paint3_linear_394_295" x1="194.192" y1="121.248" x2="194.192" y2="279.514" gradientUnits="userSpaceOnUse">
<stop stop-color="white"/>
<stop offset="1" stop-color="white" stop-opacity="0"/>
</linearGradient>
<linearGradient id="paint4_linear_394_295" x1="184.144" y1="116.852" x2="184.144" y2="263" gradientUnits="userSpaceOnUse">
<stop stop-color="white"/>
<stop offset="1" stop-color="white" stop-opacity="0"/>
</linearGradient>
</defs>
</svg>
