<svg width="233" height="198" viewBox="0 0 233 198" fill="none" xmlns="http://www.w3.org/2000/svg">
<g filter="url(#filter0_f_55_98)">
<circle cx="132.596" cy="76.7533" r="46.7533" fill="#FFC701" fill-opacity="0.5"/>
</g>
<circle cx="132.596" cy="78.2861" r="43.2493" fill="url(#paint0_linear_55_98)" stroke="url(#paint1_linear_55_98)" stroke-width="3.94208"/>
<mask id="mask0_55_98" style="mask-type:alpha" maskUnits="userSpaceOnUse" x="87" y="58" width="91" height="66">
<path d="M177.816 78.286C177.816 103.261 157.57 123.506 132.596 123.506C107.621 123.506 87.3755 103.261 87.3755 78.286C87.3755 53.3115 104.172 59.1248 129.147 59.1248C154.121 59.1248 177.816 53.3115 177.816 78.286Z" fill="url(#paint2_linear_55_98)"/>
</mask>
<g mask="url(#mask0_55_98)">
<g filter="url(#filter1_f_55_98)">
<path fill-rule="evenodd" clip-rule="evenodd" d="M168.235 194.017C168.363 194.019 168.491 194.02 168.619 194.02C186.821 194.02 201.576 179.264 201.576 161.062C201.576 142.861 186.821 128.105 168.619 128.105C168.491 128.105 168.363 128.106 168.235 128.107V128.105H147.226C147.686 125.363 147.925 122.547 147.925 119.674C147.925 91.7368 125.277 69.0889 97.3397 69.0889C69.4021 69.0889 46.7542 91.7368 46.7542 119.674C46.7542 122.659 47.0127 125.583 47.5084 128.425C31.4892 130.668 19.1616 144.425 19.1616 161.062C19.1616 179.264 33.9171 194.02 52.1188 194.02C52.2472 194.02 52.3755 194.019 52.5035 194.017L52.5018 194.02H168.235V194.017Z" fill="#E18700"/>
</g>
</g>
<g filter="url(#filter2_b_55_98)">
<mask id="path-5-inside-1_55_98" fill="white">
<path fill-rule="evenodd" clip-rule="evenodd" d="M149.074 197.85C149.201 197.851 149.329 197.852 149.457 197.852C167.659 197.852 182.415 183.096 182.415 164.895C182.415 146.693 167.659 131.937 149.457 131.937C149.329 131.937 149.201 131.938 149.074 131.94V131.937H140.559C140.867 129.682 141.026 127.379 141.026 125.039C141.026 97.1017 118.378 74.4538 90.4403 74.4538C62.5027 74.4538 39.8548 97.1017 39.8548 125.039C39.8548 127.675 40.0565 130.264 40.4452 132.792C38.0396 132.233 35.5329 131.937 32.9572 131.937C14.7555 131.937 0 146.693 0 164.895C0 183.096 14.7555 197.852 32.9572 197.852C33.0856 197.852 33.2139 197.851 33.3419 197.85L33.3402 197.852H149.074V197.85Z"/>
</mask>
<path fill-rule="evenodd" clip-rule="evenodd" d="M149.074 197.85C149.201 197.851 149.329 197.852 149.457 197.852C167.659 197.852 182.415 183.096 182.415 164.895C182.415 146.693 167.659 131.937 149.457 131.937C149.329 131.937 149.201 131.938 149.074 131.94V131.937H140.559C140.867 129.682 141.026 127.379 141.026 125.039C141.026 97.1017 118.378 74.4538 90.4403 74.4538C62.5027 74.4538 39.8548 97.1017 39.8548 125.039C39.8548 127.675 40.0565 130.264 40.4452 132.792C38.0396 132.233 35.5329 131.937 32.9572 131.937C14.7555 131.937 0 146.693 0 164.895C0 183.096 14.7555 197.852 32.9572 197.852C33.0856 197.852 33.2139 197.851 33.3419 197.85L33.3402 197.852H149.074V197.85Z" fill="url(#paint3_linear_55_98)"/>
<path d="M149.074 197.85L149.119 193.908C148.065 193.896 147.051 194.306 146.302 195.046C145.553 195.787 145.132 196.796 145.132 197.85H149.074ZM149.074 131.94H145.132C145.132 132.993 145.553 134.002 146.302 134.743C147.051 135.484 148.065 135.893 149.119 135.881L149.074 131.94ZM149.074 131.937H153.016C153.016 129.76 151.251 127.995 149.074 127.995V131.937ZM140.559 131.937L136.653 131.405C136.5 132.533 136.841 133.672 137.59 134.53C138.338 135.387 139.421 135.88 140.559 135.88V131.937ZM40.4452 132.792L39.5531 136.632C40.8275 136.928 42.1657 136.572 43.1252 135.683C44.0847 134.793 44.5403 133.486 44.3414 132.193L40.4452 132.792ZM33.3419 197.85L36.4353 200.293C37.3769 199.101 37.5498 197.474 36.8798 196.111C36.2097 194.747 34.8158 193.891 33.2968 193.908L33.3419 197.85ZM33.3402 197.852L30.2468 195.408C29.3102 196.594 29.1337 198.211 29.7925 199.571C30.4512 200.93 31.8292 201.794 33.3402 201.794V197.852ZM149.074 197.852V201.794C151.251 201.794 153.016 200.029 153.016 197.852H149.074ZM149.029 201.792C149.171 201.793 149.314 201.794 149.457 201.794V193.91C149.344 193.91 149.231 193.909 149.119 193.908L149.029 201.792ZM149.457 201.794C169.836 201.794 186.357 185.274 186.357 164.895H178.472C178.472 180.919 165.482 193.91 149.457 193.91V201.794ZM186.357 164.895C186.357 144.516 169.836 127.995 149.457 127.995V135.88C165.482 135.88 178.472 148.87 178.472 164.895H186.357ZM149.457 127.995C149.314 127.995 149.171 127.996 149.029 127.998L149.119 135.881C149.231 135.88 149.344 135.88 149.457 135.88V127.995ZM145.132 131.937V131.94H153.016V131.937H145.132ZM140.559 135.88H149.074V127.995H140.559V135.88ZM144.465 132.47C144.797 130.039 144.968 127.558 144.968 125.039H137.084C137.084 127.201 136.937 129.325 136.653 131.405L144.465 132.47ZM144.968 125.039C144.968 94.9245 120.555 70.5117 90.4403 70.5117V78.3959C116.201 78.3959 137.084 99.2788 137.084 125.039H144.968ZM90.4403 70.5117C60.3256 70.5117 35.9127 94.9245 35.9127 125.039H43.7969C43.7969 99.2788 64.6799 78.3959 90.4403 78.3959V70.5117ZM35.9127 125.039C35.9127 127.877 36.1298 130.666 36.5489 133.391L44.3414 132.193C43.9831 129.863 43.7969 127.474 43.7969 125.039H35.9127ZM41.3372 128.952C38.6412 128.326 35.8353 127.995 32.9572 127.995V135.88C35.2305 135.88 37.4379 136.14 39.5531 136.632L41.3372 128.952ZM32.9572 127.995C12.5783 127.995 -3.94208 144.516 -3.94208 164.895H3.94208C3.94208 148.87 16.9326 135.88 32.9572 135.88V127.995ZM-3.94208 164.895C-3.94208 185.274 12.5783 201.794 32.9572 201.794V193.91C16.9326 193.91 3.94208 180.919 3.94208 164.895H-3.94208ZM32.9572 201.794C33.1006 201.794 33.2439 201.793 33.387 201.792L33.2968 193.908C33.1838 193.909 33.0706 193.91 32.9572 193.91V201.794ZM36.4336 200.295L36.4353 200.293L30.2485 195.406L30.2468 195.408L36.4336 200.295ZM149.074 193.91H33.3402V201.794H149.074V193.91ZM145.132 197.85V197.852H153.016V197.85H145.132Z" fill="url(#paint4_linear_55_98)" mask="url(#path-5-inside-1_55_98)"/>
</g>
<g filter="url(#filter3_b_55_98)">
<mask id="path-7-inside-2_55_98" fill="white">
<path fill-rule="evenodd" clip-rule="evenodd" d="M208.905 163.631C208.997 163.632 209.089 163.632 209.182 163.632C222.336 163.632 233 152.969 233 139.814C233 126.66 222.336 115.997 209.182 115.997C209.089 115.997 208.997 115.997 208.905 115.998V115.997H202.752C202.974 114.367 203.089 112.702 203.089 111.011C203.089 90.8212 186.722 74.4539 166.531 74.4539C146.341 74.4539 129.974 90.8212 129.974 111.011C129.974 112.917 130.119 114.788 130.4 116.614C128.662 116.21 126.85 115.997 124.988 115.997C111.834 115.997 101.17 126.66 101.17 139.814C101.17 152.969 111.834 163.632 124.988 163.632C125.081 163.632 125.174 163.632 125.267 163.631L125.266 163.632H208.905V163.631Z"/>
</mask>
<path fill-rule="evenodd" clip-rule="evenodd" d="M208.905 163.631C208.997 163.632 209.089 163.632 209.182 163.632C222.336 163.632 233 152.969 233 139.814C233 126.66 222.336 115.997 209.182 115.997C209.089 115.997 208.997 115.997 208.905 115.998V115.997H202.752C202.974 114.367 203.089 112.702 203.089 111.011C203.089 90.8212 186.722 74.4539 166.531 74.4539C146.341 74.4539 129.974 90.8212 129.974 111.011C129.974 112.917 130.119 114.788 130.4 116.614C128.662 116.21 126.85 115.997 124.988 115.997C111.834 115.997 101.17 126.66 101.17 139.814C101.17 152.969 111.834 163.632 124.988 163.632C125.081 163.632 125.174 163.632 125.267 163.631L125.266 163.632H208.905V163.631Z" fill="url(#paint5_linear_55_98)"/>
<path d="M208.905 163.631L208.95 159.689C207.897 159.677 206.882 160.087 206.133 160.827C205.384 161.568 204.963 162.577 204.963 163.631H208.905ZM208.905 115.998H204.963C204.963 117.051 205.384 118.061 206.133 118.801C206.882 119.542 207.897 119.952 208.95 119.94L208.905 115.998ZM208.905 115.997H212.847C212.847 113.819 211.082 112.055 208.905 112.055V115.997ZM202.752 115.997L198.846 115.464C198.692 116.592 199.033 117.731 199.782 118.589C200.531 119.447 201.613 119.939 202.752 119.939V115.997ZM130.4 116.614L129.508 120.454C130.783 120.75 132.121 120.395 133.08 119.505C134.04 118.616 134.496 117.308 134.297 116.015L130.4 116.614ZM125.267 163.631L128.361 166.073C129.302 164.881 129.475 163.254 128.804 161.891C128.134 160.528 126.741 159.671 125.222 159.689L125.267 163.631ZM125.266 163.632L122.172 161.19C121.235 162.375 121.059 163.992 121.718 165.351C122.377 166.711 123.755 167.574 125.266 167.574V163.632ZM208.905 163.632V167.574C211.082 167.574 212.847 165.809 212.847 163.632H208.905ZM208.86 167.572C208.967 167.574 209.074 167.574 209.182 167.574V159.69C209.104 159.69 209.027 159.69 208.95 159.689L208.86 167.572ZM209.182 167.574C224.513 167.574 236.942 155.146 236.942 139.814H229.058C229.058 150.791 220.159 159.69 209.182 159.69V167.574ZM236.942 139.814C236.942 124.483 224.513 112.055 209.182 112.055V119.939C220.159 119.939 229.058 128.837 229.058 139.814H236.942ZM209.182 112.055C209.074 112.055 208.967 112.055 208.86 112.056L208.95 119.94C209.027 119.939 209.104 119.939 209.182 119.939V112.055ZM204.963 115.997V115.998H212.847V115.997H204.963ZM202.752 119.939H208.905V112.055H202.752V119.939ZM206.658 116.529C206.904 114.723 207.031 112.881 207.031 111.011H199.147C199.147 112.524 199.044 114.01 198.846 115.464L206.658 116.529ZM207.031 111.011C207.031 88.6441 188.899 70.5118 166.531 70.5118V78.3959C184.544 78.3959 199.147 92.9984 199.147 111.011H207.031ZM166.531 70.5118C144.164 70.5118 126.032 88.6441 126.032 111.011H133.916C133.916 92.9984 148.518 78.3959 166.531 78.3959V70.5118ZM126.032 111.011C126.032 113.118 126.193 115.189 126.504 117.213L134.297 116.015C134.046 114.386 133.916 112.715 133.916 111.011H126.032ZM131.293 112.774C129.263 112.303 127.152 112.055 124.988 112.055V119.939C126.547 119.939 128.06 120.117 129.508 120.454L131.293 112.774ZM124.988 112.055C109.657 112.055 97.2283 124.483 97.2283 139.814H105.112C105.112 128.837 114.011 119.939 124.988 119.939V112.055ZM97.2283 139.814C97.2283 155.146 109.657 167.574 124.988 167.574V159.69C114.011 159.69 105.112 150.791 105.112 139.814H97.2283ZM124.988 167.574C125.096 167.574 125.204 167.574 125.312 167.572L125.222 159.689C125.144 159.69 125.066 159.69 124.988 159.69V167.574ZM128.36 166.075L128.361 166.073L122.173 161.188L122.172 161.19L128.36 166.075ZM208.905 159.69H125.266V167.574H208.905V159.69ZM204.963 163.631V163.632H212.847V163.631H204.963Z" fill="url(#paint6_linear_55_98)" mask="url(#path-7-inside-2_55_98)"/>
</g>
<defs>
<filter id="filter0_f_55_98" x="56.2767" y="0.434429" width="152.637" height="152.638" filterUnits="userSpaceOnUse" color-interpolation-filters="sRGB">
<feFlood flood-opacity="0" result="BackgroundImageFix"/>
<feBlend mode="normal" in="SourceGraphic" in2="BackgroundImageFix" result="shape"/>
<feGaussianBlur stdDeviation="14.7828" result="effect1_foregroundBlur_55_98"/>
</filter>
<filter id="filter1_f_55_98" x="-8.43291" y="41.4944" width="237.604" height="180.12" filterUnits="userSpaceOnUse" color-interpolation-filters="sRGB">
<feFlood flood-opacity="0" result="BackgroundImageFix"/>
<feBlend mode="normal" in="SourceGraphic" in2="BackgroundImageFix" result="shape"/>
<feGaussianBlur stdDeviation="13.7973" result="effect1_foregroundBlur_55_98"/>
</filter>
<filter id="filter2_b_55_98" x="-27.5945" y="46.8593" width="237.604" height="178.587" filterUnits="userSpaceOnUse" color-interpolation-filters="sRGB">
<feFlood flood-opacity="0" result="BackgroundImageFix"/>
<feGaussianBlur in="BackgroundImageFix" stdDeviation="13.7973"/>
<feComposite in2="SourceAlpha" operator="in" result="effect1_backgroundBlur_55_98"/>
<feBlend mode="normal" in="SourceGraphic" in2="effect1_backgroundBlur_55_98" result="shape"/>
</filter>
<filter id="filter3_b_55_98" x="73.5759" y="46.8593" width="187.018" height="144.367" filterUnits="userSpaceOnUse" color-interpolation-filters="sRGB">
<feFlood flood-opacity="0" result="BackgroundImageFix"/>
<feGaussianBlur in="BackgroundImageFix" stdDeviation="13.7973"/>
<feComposite in2="SourceAlpha" operator="in" result="effect1_backgroundBlur_55_98"/>
<feBlend mode="normal" in="SourceGraphic" in2="effect1_backgroundBlur_55_98" result="shape"/>
</filter>
<linearGradient id="paint0_linear_55_98" x1="132.596" y1="33.0657" x2="132.596" y2="123.506" gradientUnits="userSpaceOnUse">
<stop stop-color="#FFE600"/>
<stop offset="1" stop-color="#FF7A00"/>
</linearGradient>
<linearGradient id="paint1_linear_55_98" x1="132.596" y1="33.0657" x2="132.596" y2="123.506" gradientUnits="userSpaceOnUse">
<stop stop-color="white"/>
<stop offset="1" stop-color="white" stop-opacity="0"/>
</linearGradient>
<linearGradient id="paint2_linear_55_98" x1="132.596" y1="33.0656" x2="132.596" y2="123.506" gradientUnits="userSpaceOnUse">
<stop stop-color="#FFD600"/>
<stop offset="1" stop-color="#FF7A00"/>
</linearGradient>
<linearGradient id="paint3_linear_55_98" x1="91.2072" y1="34.9818" x2="91.2072" y2="215.097" gradientUnits="userSpaceOnUse">
<stop stop-color="white"/>
<stop offset="1" stop-color="white" stop-opacity="0"/>
</linearGradient>
<linearGradient id="paint4_linear_55_98" x1="91.2072" y1="74.4538" x2="91.2072" y2="197.852" gradientUnits="userSpaceOnUse">
<stop stop-color="white"/>
<stop offset="1" stop-color="white" stop-opacity="0"/>
</linearGradient>
<linearGradient id="paint5_linear_55_98" x1="173.217" y1="77.1364" x2="173.217" y2="173.709" gradientUnits="userSpaceOnUse">
<stop stop-color="white"/>
<stop offset="1" stop-color="white" stop-opacity="0"/>
</linearGradient>
<linearGradient id="paint6_linear_55_98" x1="167.085" y1="74.4539" x2="167.085" y2="163.632" gradientUnits="userSpaceOnUse">
<stop stop-color="white"/>
<stop offset="1" stop-color="white" stop-opacity="0"/>
</linearGradient>
</defs>
</svg>
