<svg width="344" height="309" viewBox="0 0 344 309" fill="none" xmlns="http://www.w3.org/2000/svg">
<g filter="url(#filter0_b_394_298)">
<mask id="path-1-inside-1_394_298" fill="white">
<path fill-rule="evenodd" clip-rule="evenodd" d="M214.5 204.997C214.666 204.999 214.833 205 215 205C238.748 205 258 185.748 258 162C258 138.252 238.748 119 215 119C214.833 119 214.666 119.001 214.5 119.003V119H203.391C203.793 116.057 204 113.053 204 110C204 73.5492 174.451 44 138 44C101.549 44 72 73.5492 72 110C72 113.439 72.2631 116.817 72.7702 120.115C69.6314 119.386 66.3607 119 63 119C39.2518 119 20 138.252 20 162C20 185.748 39.2518 205 63 205C63.1676 205 63.3351 204.999 63.5023 204.997L63.5 205H214.5V204.997Z"/>
</mask>
<path fill-rule="evenodd" clip-rule="evenodd" d="M214.5 204.997C214.666 204.999 214.833 205 215 205C238.748 205 258 185.748 258 162C258 138.252 238.748 119 215 119C214.833 119 214.666 119.001 214.5 119.003V119H203.391C203.793 116.057 204 113.053 204 110C204 73.5492 174.451 44 138 44C101.549 44 72 73.5492 72 110C72 113.439 72.2631 116.817 72.7702 120.115C69.6314 119.386 66.3607 119 63 119C39.2518 119 20 138.252 20 162C20 185.748 39.2518 205 63 205C63.1676 205 63.3351 204.999 63.5023 204.997L63.5 205H214.5V204.997Z" fill="url(#paint0_linear_394_298)"/>
<path d="M214.5 204.997L214.523 202.997C213.988 202.991 213.474 203.199 213.094 203.575C212.714 203.951 212.5 204.463 212.5 204.997H214.5ZM214.5 119.003H212.5C212.5 119.537 212.714 120.049 213.094 120.425C213.474 120.801 213.988 121.009 214.523 121.003L214.5 119.003ZM214.5 119H216.5C216.5 117.895 215.605 117 214.5 117V119ZM203.391 119L201.41 118.73C201.332 119.302 201.505 119.88 201.885 120.315C202.265 120.75 202.814 121 203.391 121V119ZM72.7702 120.115L72.3176 122.063C72.9642 122.213 73.6431 122.033 74.1299 121.582C74.6167 121.13 74.8479 120.467 74.747 119.811L72.7702 120.115ZM63.5023 204.997L65.0717 206.237C65.5494 205.632 65.6371 204.807 65.2972 204.115C64.9572 203.423 64.2501 202.988 63.4795 202.997L63.5023 204.997ZM63.5 205L61.9306 203.76C61.4554 204.362 61.3659 205.182 61.7001 205.872C62.0343 206.562 62.7334 207 63.5 207V205ZM214.5 205V207C215.605 207 216.5 206.105 216.5 205H214.5ZM214.477 206.997C214.651 206.999 214.825 207 215 207V203C214.841 203 214.682 202.999 214.523 202.997L214.477 206.997ZM215 207C239.853 207 260 186.853 260 162H256C256 184.644 237.644 203 215 203V207ZM260 162C260 137.147 239.853 117 215 117V121C237.644 121 256 139.356 256 162H260ZM215 117C214.826 117 214.651 117.001 214.477 117.003L214.523 121.003C214.682 121.001 214.841 121 215 121V117ZM212.5 119V119.003H216.5V119H212.5ZM203.391 121H214.5V117H203.391V121ZM205.373 119.27C205.787 116.238 206 113.143 206 110H202C202 112.962 201.799 115.876 201.41 118.73L205.373 119.27ZM206 110C206 72.4446 175.555 42 138 42V46C173.346 46 202 74.6538 202 110H206ZM138 42C100.445 42 70 72.4446 70 110H74C74 74.6538 102.654 46 138 46V42ZM70 110C70 113.542 70.2709 117.021 70.7935 120.419L74.747 119.811C74.2553 116.614 74 113.337 74 110H70ZM73.2229 118.167C69.9367 117.403 66.5142 117 63 117V121C66.2073 121 69.3261 121.368 72.3176 122.063L73.2229 118.167ZM63 117C38.1472 117 18 137.147 18 162H22C22 139.356 40.3563 121 63 121V117ZM18 162C18 186.853 38.1472 207 63 207V203C40.3563 203 22 184.644 22 162H18ZM63 207C63.1753 207 63.3503 206.999 63.5251 206.997L63.4795 202.997C63.3198 202.999 63.16 203 63 203V207ZM65.0694 206.24L65.0717 206.237L61.9328 203.757L61.9306 203.76L65.0694 206.24ZM214.5 203H63.5V207H214.5V203ZM212.5 204.997V205H216.5V204.997H212.5Z" fill="url(#paint1_linear_394_298)" mask="url(#path-1-inside-1_394_298)"/>
</g>
<g filter="url(#filter1_b_394_298)">
<mask id="path-3-inside-2_394_298" fill="white">
<path fill-rule="evenodd" clip-rule="evenodd" d="M292.563 160.351C292.683 160.352 292.804 160.353 292.924 160.353C310.087 160.353 324 146.44 324 129.277C324 112.115 310.087 98.2017 292.924 98.2017C292.804 98.2017 292.683 98.2024 292.563 98.2037V98.2017H284.535C284.825 96.075 284.975 93.9037 284.975 91.6975C284.975 65.3549 263.62 44 237.277 44C210.935 44 189.58 65.3549 189.58 91.6975C189.58 94.1831 189.77 96.6243 190.136 99.0074C187.868 98.4803 185.504 98.2017 183.076 98.2017C165.913 98.2017 152 112.115 152 129.277C152 146.44 165.913 160.353 183.076 160.353C183.197 160.353 183.318 160.352 183.439 160.351L183.437 160.353H292.563V160.351Z"/>
</mask>
<path fill-rule="evenodd" clip-rule="evenodd" d="M292.563 160.351C292.683 160.352 292.804 160.353 292.924 160.353C310.087 160.353 324 146.44 324 129.277C324 112.115 310.087 98.2017 292.924 98.2017C292.804 98.2017 292.683 98.2024 292.563 98.2037V98.2017H284.535C284.825 96.075 284.975 93.9037 284.975 91.6975C284.975 65.3549 263.62 44 237.277 44C210.935 44 189.58 65.3549 189.58 91.6975C189.58 94.1831 189.77 96.6243 190.136 99.0074C187.868 98.4803 185.504 98.2017 183.076 98.2017C165.913 98.2017 152 112.115 152 129.277C152 146.44 165.913 160.353 183.076 160.353C183.197 160.353 183.318 160.352 183.439 160.351L183.437 160.353H292.563V160.351Z" fill="url(#paint2_linear_394_298)"/>
<path d="M292.563 160.351L292.586 158.351C292.052 158.345 291.537 158.553 291.157 158.929C290.777 159.304 290.563 159.816 290.563 160.351H292.563ZM292.563 98.2037H290.563C290.563 98.7381 290.777 99.2503 291.157 99.626C291.537 100.002 292.051 100.21 292.586 100.204L292.563 98.2037ZM292.563 98.2017H294.563C294.563 97.0971 293.668 96.2017 292.563 96.2017V98.2017ZM284.535 98.2017L282.553 97.9315C282.475 98.5037 282.649 99.0818 283.028 99.5169C283.408 99.952 283.957 100.202 284.535 100.202V98.2017ZM190.136 99.0074L189.684 100.955C190.33 101.106 191.009 100.925 191.496 100.474C191.983 100.023 192.214 99.3594 192.113 98.7033L190.136 99.0074ZM183.439 160.351L185.008 161.59C185.486 160.985 185.573 160.16 185.233 159.468C184.893 158.777 184.186 158.342 183.416 158.351L183.439 160.351ZM183.437 160.353L181.867 159.114C181.392 159.715 181.303 160.535 181.637 161.225C181.971 161.915 182.67 162.353 183.437 162.353V160.353ZM292.563 160.353V162.353C293.668 162.353 294.563 161.458 294.563 160.353H292.563ZM292.54 162.351C292.668 162.352 292.796 162.353 292.924 162.353V158.353C292.811 158.353 292.699 158.352 292.586 158.351L292.54 162.351ZM292.924 162.353C311.192 162.353 326 147.544 326 129.277H322C322 145.335 308.982 158.353 292.924 158.353V162.353ZM326 129.277C326 111.01 311.192 96.2017 292.924 96.2017V100.202C308.982 100.202 322 113.219 322 129.277H326ZM292.924 96.2017C292.796 96.2017 292.668 96.2024 292.54 96.2039L292.586 100.204C292.698 100.202 292.811 100.202 292.924 100.202V96.2017ZM290.563 98.2017V98.2037H294.563V98.2017H290.563ZM284.535 100.202H292.563V96.2017H284.535V100.202ZM286.517 98.4719C286.819 96.2559 286.975 93.9944 286.975 91.6975H282.975C282.975 93.8131 282.831 95.8941 282.553 97.9315L286.517 98.4719ZM286.975 91.6975C286.975 64.2503 264.724 42 237.277 42V46C262.515 46 282.975 66.4595 282.975 91.6975H286.975ZM237.277 42C209.83 42 187.58 64.2503 187.58 91.6975H191.58C191.58 66.4595 212.039 46 237.277 46V42ZM187.58 91.6975C187.58 94.2852 187.778 96.8281 188.16 99.3114L192.113 98.7033C191.762 96.4205 191.58 94.081 191.58 91.6975H187.58ZM190.589 97.0592C188.173 96.498 185.658 96.2017 183.076 96.2017V100.202C185.351 100.202 187.563 100.463 189.684 100.955L190.589 97.0592ZM183.076 96.2017C164.808 96.2017 150 111.01 150 129.277H154C154 113.219 167.018 100.202 183.076 100.202V96.2017ZM150 129.277C150 147.544 164.808 162.353 183.076 162.353V158.353C167.018 158.353 154 145.335 154 129.277H150ZM183.076 162.353C183.204 162.353 183.333 162.352 183.461 162.351L183.416 158.351C183.303 158.352 183.189 158.353 183.076 158.353V162.353ZM185.007 161.592L185.008 161.59L181.869 159.112L181.867 159.114L185.007 161.592ZM292.563 158.353H183.437V162.353H292.563V158.353ZM290.563 160.351V160.353H294.563V160.351H290.563Z" fill="url(#paint3_linear_394_298)" mask="url(#path-3-inside-2_394_298)"/>
</g>
<g filter="url(#filter2_bd_394_298)">
<path d="M125.181 181.486L126.354 197.919C126.963 206.447 118.831 212.936 110.65 210.448C102.47 207.959 99.3279 198.041 104.583 191.296L114.708 178.3C118.01 174.062 124.798 176.127 125.181 181.486Z" fill="url(#paint4_linear_394_298)" stroke="url(#paint5_linear_394_298)" stroke-width="2"/>
<path d="M182.688 181.486L183.861 197.919C184.47 206.447 176.337 212.936 168.157 210.448C159.977 207.959 156.835 198.041 162.09 191.296L172.215 178.3C175.517 174.062 182.305 176.127 182.688 181.486Z" fill="url(#paint6_linear_394_298)" stroke="url(#paint7_linear_394_298)" stroke-width="2"/>
<path d="M143.688 234.486L144.862 250.919C145.471 259.447 137.338 265.936 129.158 263.448C120.978 260.959 117.835 251.041 123.09 244.296L133.215 231.3C136.517 227.062 143.306 229.127 143.688 234.486Z" fill="url(#paint8_linear_394_298)" stroke="url(#paint9_linear_394_298)" stroke-width="2"/>
<path d="M240.196 181.486L241.369 197.919C241.978 206.447 233.845 212.936 225.665 210.448C217.485 207.959 214.343 198.041 219.597 191.296L229.723 178.3C233.024 174.062 239.813 176.127 240.196 181.486Z" fill="url(#paint10_linear_394_298)" stroke="url(#paint11_linear_394_298)" stroke-width="2"/>
<path d="M201.196 234.486L202.37 250.919C202.979 259.447 194.846 265.936 186.666 263.448C178.485 260.959 175.343 251.041 180.598 244.296L190.723 231.3C194.025 227.062 200.813 229.127 201.196 234.486Z" fill="url(#paint12_linear_394_298)" stroke="url(#paint13_linear_394_298)" stroke-width="2"/>
</g>
<defs>
<filter id="filter0_b_394_298" x="6" y="30" width="266" height="189" filterUnits="userSpaceOnUse" color-interpolation-filters="sRGB">
<feFlood flood-opacity="0" result="BackgroundImageFix"/>
<feGaussianBlur in="BackgroundImageFix" stdDeviation="7"/>
<feComposite in2="SourceAlpha" operator="in" result="effect1_backgroundBlur_394_298"/>
<feBlend mode="normal" in="SourceGraphic" in2="effect1_backgroundBlur_394_298" result="shape"/>
</filter>
<filter id="filter1_b_394_298" x="138" y="30" width="200" height="144.353" filterUnits="userSpaceOnUse" color-interpolation-filters="sRGB">
<feFlood flood-opacity="0" result="BackgroundImageFix"/>
<feGaussianBlur in="BackgroundImageFix" stdDeviation="7"/>
<feComposite in2="SourceAlpha" operator="in" result="effect1_backgroundBlur_394_298"/>
<feBlend mode="normal" in="SourceGraphic" in2="effect1_backgroundBlur_394_298" result="shape"/>
</filter>
<filter id="filter2_bd_394_298" x="60.002" y="127.031" width="223.399" height="171.955" filterUnits="userSpaceOnUse" color-interpolation-filters="sRGB">
<feFlood flood-opacity="0" result="BackgroundImageFix"/>
<feGaussianBlur in="BackgroundImageFix" stdDeviation="7"/>
<feComposite in2="SourceAlpha" operator="in" result="effect1_backgroundBlur_394_298"/>
<feColorMatrix in="SourceAlpha" type="matrix" values="0 0 0 0 0 0 0 0 0 0 0 0 0 0 0 0 0 0 127 0" result="hardAlpha"/>
<feOffset dy="-7"/>
<feGaussianBlur stdDeviation="20.5"/>
<feComposite in2="hardAlpha" operator="out"/>
<feColorMatrix type="matrix" values="0 0 0 0 0.1375 0 0 0 0 0.74125 0 0 0 0 1 0 0 0 0.3 0"/>
<feBlend mode="normal" in2="effect1_backgroundBlur_394_298" result="effect2_dropShadow_394_298"/>
<feBlend mode="normal" in="SourceGraphic" in2="effect2_dropShadow_394_298" result="shape"/>
</filter>
<linearGradient id="paint0_linear_394_298" x1="139" y1="-7.5" x2="139" y2="227.5" gradientUnits="userSpaceOnUse">
<stop stop-color="white"/>
<stop offset="1" stop-color="white" stop-opacity="0"/>
</linearGradient>
<linearGradient id="paint1_linear_394_298" x1="139" y1="44" x2="139" y2="205" gradientUnits="userSpaceOnUse">
<stop stop-color="white"/>
<stop offset="1" stop-color="white" stop-opacity="0"/>
</linearGradient>
<linearGradient id="paint2_linear_394_298" x1="246" y1="47.5" x2="246" y2="173.5" gradientUnits="userSpaceOnUse">
<stop stop-color="white"/>
<stop offset="1" stop-color="white" stop-opacity="0"/>
</linearGradient>
<linearGradient id="paint3_linear_394_298" x1="238" y1="44" x2="238" y2="160.353" gradientUnits="userSpaceOnUse">
<stop stop-color="white"/>
<stop offset="1" stop-color="white" stop-opacity="0"/>
</linearGradient>
<linearGradient id="paint4_linear_394_298" x1="124.905" y1="163.585" x2="110.359" y2="211.404" gradientUnits="userSpaceOnUse">
<stop stop-color="#138EFF"/>
<stop offset="1" stop-color="#00E0FF"/>
</linearGradient>
<linearGradient id="paint5_linear_394_298" x1="124.905" y1="163.585" x2="110.359" y2="211.404" gradientUnits="userSpaceOnUse">
<stop stop-color="white"/>
<stop offset="1" stop-color="white" stop-opacity="0"/>
</linearGradient>
<linearGradient id="paint6_linear_394_298" x1="182.412" y1="163.585" x2="167.866" y2="211.404" gradientUnits="userSpaceOnUse">
<stop stop-color="#138EFF"/>
<stop offset="1" stop-color="#00E0FF"/>
</linearGradient>
<linearGradient id="paint7_linear_394_298" x1="182.412" y1="163.585" x2="167.866" y2="211.404" gradientUnits="userSpaceOnUse">
<stop stop-color="white"/>
<stop offset="1" stop-color="white" stop-opacity="0"/>
</linearGradient>
<linearGradient id="paint8_linear_394_298" x1="143.413" y1="216.585" x2="128.867" y2="264.404" gradientUnits="userSpaceOnUse">
<stop stop-color="#138EFF"/>
<stop offset="1" stop-color="#00E0FF"/>
</linearGradient>
<linearGradient id="paint9_linear_394_298" x1="143.413" y1="216.585" x2="128.867" y2="264.404" gradientUnits="userSpaceOnUse">
<stop stop-color="white"/>
<stop offset="1" stop-color="white" stop-opacity="0"/>
</linearGradient>
<linearGradient id="paint10_linear_394_298" x1="239.92" y1="163.585" x2="225.374" y2="211.404" gradientUnits="userSpaceOnUse">
<stop stop-color="#138EFF"/>
<stop offset="1" stop-color="#00E0FF"/>
</linearGradient>
<linearGradient id="paint11_linear_394_298" x1="239.92" y1="163.585" x2="225.374" y2="211.404" gradientUnits="userSpaceOnUse">
<stop stop-color="white"/>
<stop offset="1" stop-color="white" stop-opacity="0"/>
</linearGradient>
<linearGradient id="paint12_linear_394_298" x1="200.92" y1="216.585" x2="186.375" y2="264.404" gradientUnits="userSpaceOnUse">
<stop stop-color="#138EFF"/>
<stop offset="1" stop-color="#00E0FF"/>
</linearGradient>
<linearGradient id="paint13_linear_394_298" x1="200.92" y1="216.585" x2="186.375" y2="264.404" gradientUnits="userSpaceOnUse">
<stop stop-color="white"/>
<stop offset="1" stop-color="white" stop-opacity="0"/>
</linearGradient>
</defs>
</svg>
