<svg width="404" height="368" viewBox="0 0 404 368" fill="none" xmlns="http://www.w3.org/2000/svg">
<g filter="url(#filter0_b_265_346)">
<mask id="path-1-inside-1_265_346" fill="white">
<path fill-rule="evenodd" clip-rule="evenodd" d="M171.563 116.351C171.683 116.352 171.804 116.353 171.924 116.353C189.087 116.353 203 102.44 203 85.2773C203 68.1147 189.087 54.2017 171.924 54.2017C171.804 54.2017 171.683 54.2024 171.563 54.2037V54.2017H163.535C163.825 52.075 163.975 49.9037 163.975 47.6975C163.975 21.3549 142.62 0 116.277 0C89.9347 0 68.5798 21.3549 68.5798 47.6975C68.5798 50.1831 68.77 52.6243 69.1365 55.0074C66.8681 54.4803 64.5044 54.2017 62.0756 54.2017C44.913 54.2017 31 68.1147 31 85.2773C31 102.44 44.913 116.353 62.0756 116.353C62.1968 116.353 62.3178 116.352 62.4386 116.351L62.437 116.353H171.563V116.351Z"/>
</mask>
<path fill-rule="evenodd" clip-rule="evenodd" d="M171.563 116.351C171.683 116.352 171.804 116.353 171.924 116.353C189.087 116.353 203 102.44 203 85.2773C203 68.1147 189.087 54.2017 171.924 54.2017C171.804 54.2017 171.683 54.2024 171.563 54.2037V54.2017H163.535C163.825 52.075 163.975 49.9037 163.975 47.6975C163.975 21.3549 142.62 0 116.277 0C89.9347 0 68.5798 21.3549 68.5798 47.6975C68.5798 50.1831 68.77 52.6243 69.1365 55.0074C66.8681 54.4803 64.5044 54.2017 62.0756 54.2017C44.913 54.2017 31 68.1147 31 85.2773C31 102.44 44.913 116.353 62.0756 116.353C62.1968 116.353 62.3178 116.352 62.4386 116.351L62.437 116.353H171.563V116.351Z" fill="url(#paint0_linear_265_346)"/>
<path d="M171.563 116.351L171.586 114.351C171.052 114.345 170.537 114.553 170.157 114.929C169.777 115.304 169.563 115.816 169.563 116.351H171.563ZM171.563 54.2037H169.563C169.563 54.7381 169.777 55.2503 170.157 55.626C170.537 56.0017 171.051 56.2097 171.586 56.2036L171.563 54.2037ZM171.563 54.2017H173.563C173.563 53.0971 172.668 52.2017 171.563 52.2017V54.2017ZM163.535 54.2017L161.553 53.9315C161.475 54.5037 161.649 55.0818 162.028 55.5169C162.408 55.952 162.957 56.2017 163.535 56.2017V54.2017ZM69.1365 55.0074L68.6838 56.9555C69.3304 57.1057 70.0094 56.9253 70.4962 56.4741C70.9829 56.0228 71.2141 55.3594 71.1132 54.7033L69.1365 55.0074ZM62.4386 116.351L64.0083 117.59C64.4859 116.985 64.5734 116.16 64.2334 115.468C63.8934 114.777 63.1863 114.342 62.4158 114.351L62.4386 116.351ZM62.437 116.353L60.8672 115.114C60.3923 115.715 60.3029 116.535 60.6372 117.225C60.9714 117.915 61.6705 118.353 62.437 118.353V116.353ZM171.563 116.353V118.353C172.668 118.353 173.563 117.458 173.563 116.353H171.563ZM171.54 118.351C171.668 118.352 171.796 118.353 171.924 118.353V114.353C171.811 114.353 171.699 114.352 171.586 114.351L171.54 118.351ZM171.924 118.353C190.192 118.353 205 103.544 205 85.2773H201C201 101.335 187.982 114.353 171.924 114.353V118.353ZM205 85.2773C205 67.0101 190.192 52.2017 171.924 52.2017V56.2017C187.982 56.2017 201 69.2193 201 85.2773H205ZM171.924 52.2017C171.796 52.2017 171.668 52.2024 171.54 52.2039L171.586 56.2036C171.699 56.2023 171.811 56.2017 171.924 56.2017V52.2017ZM169.563 54.2017V54.2037H173.563V54.2017H169.563ZM163.535 56.2017H171.563V52.2017H163.535V56.2017ZM165.517 54.4719C165.819 52.2559 165.975 49.9944 165.975 47.6975H161.975C161.975 49.8131 161.831 51.8941 161.553 53.9315L165.517 54.4719ZM165.975 47.6975C165.975 20.2503 143.724 -2 116.277 -2V2C141.515 2 161.975 22.4595 161.975 47.6975H165.975ZM116.277 -2C88.8302 -2 66.5798 20.2503 66.5798 47.6975H70.5798C70.5798 22.4595 91.0393 2 116.277 2V-2ZM66.5798 47.6975C66.5798 50.2852 66.7778 52.8281 67.1597 55.3114L71.1132 54.7033C70.7621 52.4205 70.5798 50.081 70.5798 47.6975H66.5798ZM69.5891 53.0592C67.1734 52.498 64.6578 52.2017 62.0756 52.2017V56.2017C64.351 56.2017 66.5628 56.4627 68.6838 56.9555L69.5891 53.0592ZM62.0756 52.2017C43.8085 52.2017 29 67.0101 29 85.2773H33C33 69.2193 46.0176 56.2017 62.0756 56.2017V52.2017ZM29 85.2773C29 103.544 43.8085 118.353 62.0756 118.353V114.353C46.0176 114.353 33 101.335 33 85.2773H29ZM62.0756 118.353C62.2044 118.353 62.333 118.352 62.4615 118.351L62.4158 114.351C62.3025 114.352 62.1891 114.353 62.0756 114.353V118.353ZM64.0067 117.592L64.0083 117.59L60.8689 115.112L60.8672 115.114L64.0067 117.592ZM171.563 114.353H62.437V118.353H171.563V114.353ZM169.563 116.351V116.353H173.563V116.351H169.563Z" fill="url(#paint1_linear_265_346)" mask="url(#path-1-inside-1_265_346)"/>
</g>
<g filter="url(#filter1_bd_265_346)">
<mask id="path-3-inside-2_265_346" fill="white">
<path fill-rule="evenodd" clip-rule="evenodd" d="M265.5 195.997C265.666 195.999 265.833 196 266 196C289.748 196 309 176.748 309 153C309 129.252 289.748 110 266 110C265.833 110 265.666 110.001 265.5 110.003V110H254.391C254.793 107.057 255 104.053 255 101C255 64.5492 225.451 35 189 35C152.549 35 123 64.5492 123 101C123 104.439 123.263 107.817 123.77 111.115C120.631 110.386 117.361 110 114 110C90.2518 110 71 129.252 71 153C71 176.748 90.2518 196 114 196C114.168 196 114.335 195.999 114.502 195.997L114.5 196H265.5V195.997Z"/>
</mask>
<path fill-rule="evenodd" clip-rule="evenodd" d="M265.5 195.997C265.666 195.999 265.833 196 266 196C289.748 196 309 176.748 309 153C309 129.252 289.748 110 266 110C265.833 110 265.666 110.001 265.5 110.003V110H254.391C254.793 107.057 255 104.053 255 101C255 64.5492 225.451 35 189 35C152.549 35 123 64.5492 123 101C123 104.439 123.263 107.817 123.77 111.115C120.631 110.386 117.361 110 114 110C90.2518 110 71 129.252 71 153C71 176.748 90.2518 196 114 196C114.168 196 114.335 195.999 114.502 195.997L114.5 196H265.5V195.997Z" fill="url(#paint2_linear_265_346)" shape-rendering="crispEdges"/>
<path d="M265.5 195.997L265.523 193.997C264.988 193.991 264.474 194.199 264.094 194.575C263.714 194.951 263.5 195.463 263.5 195.997H265.5ZM265.5 110.003H263.5C263.5 110.537 263.714 111.049 264.094 111.425C264.474 111.801 264.988 112.009 265.523 112.003L265.5 110.003ZM265.5 110H267.5C267.5 108.895 266.605 108 265.5 108V110ZM254.391 110L252.41 109.73C252.332 110.302 252.505 110.88 252.885 111.315C253.265 111.75 253.814 112 254.391 112V110ZM123.77 111.115L123.318 113.063C123.964 113.213 124.643 113.033 125.13 112.582C125.617 112.13 125.848 111.467 125.747 110.811L123.77 111.115ZM114.502 195.997L116.072 197.237C116.549 196.632 116.637 195.807 116.297 195.115C115.957 194.423 115.25 193.988 114.479 193.997L114.502 195.997ZM114.5 196L112.931 194.76C112.455 195.362 112.366 196.182 112.7 196.872C113.034 197.562 113.733 198 114.5 198V196ZM265.5 196V198C266.605 198 267.5 197.105 267.5 196H265.5ZM265.477 197.997C265.651 197.999 265.825 198 266 198V194C265.841 194 265.682 193.999 265.523 193.997L265.477 197.997ZM266 198C290.853 198 311 177.853 311 153H307C307 175.644 288.644 194 266 194V198ZM311 153C311 128.147 290.853 108 266 108V112C288.644 112 307 130.356 307 153H311ZM266 108C265.826 108 265.651 108.001 265.477 108.003L265.523 112.003C265.682 112.001 265.841 112 266 112V108ZM263.5 110V110.003H267.5V110H263.5ZM254.391 112H265.5V108H254.391V112ZM256.373 110.27C256.787 107.238 257 104.143 257 101H253C253 103.962 252.799 106.876 252.41 109.73L256.373 110.27ZM257 101C257 63.4446 226.555 33 189 33V37C224.346 37 253 65.6538 253 101H257ZM189 33C151.445 33 121 63.4446 121 101H125C125 65.6538 153.654 37 189 37V33ZM121 101C121 104.542 121.271 108.021 121.793 111.419L125.747 110.811C125.255 107.614 125 104.337 125 101H121ZM124.223 109.167C120.937 108.403 117.514 108 114 108V112C117.207 112 120.326 112.368 123.318 113.063L124.223 109.167ZM114 108C89.1472 108 69 128.147 69 153H73C73 130.356 91.3563 112 114 112V108ZM69 153C69 177.853 89.1472 198 114 198V194C91.3563 194 73 175.644 73 153H69ZM114 198C114.175 198 114.35 197.999 114.525 197.997L114.479 193.997C114.32 193.999 114.16 194 114 194V198ZM116.069 197.24L116.072 197.237L112.933 194.757L112.931 194.76L116.069 197.24ZM265.5 194H114.5V198H265.5V194ZM263.5 195.997V196H267.5V195.997H263.5Z" fill="url(#paint3_linear_265_346)" mask="url(#path-3-inside-2_265_346)"/>
</g>
<g filter="url(#filter2_bdd_265_346)">
<path d="M233.617 211.541L281.431 124.041C281.782 123.399 282.455 123 283.186 123H330.195C331.698 123 332.664 124.596 331.966 125.928L302.034 183.072C301.336 184.404 302.302 186 303.805 186H340.527C342.256 186 343.17 188.045 342.017 189.334L241.581 301.585C240.107 303.233 237.443 301.623 238.217 299.552L268.991 217.2C269.479 215.893 268.513 214.5 267.118 214.5H235.372C233.853 214.5 232.889 212.874 233.617 211.541Z" fill="url(#paint4_linear_265_346)"/>
<path d="M234.494 212.02L282.309 124.52C282.484 124.2 282.821 124 283.186 124H330.195C330.946 124 331.429 124.798 331.08 125.464L301.148 182.608C300.102 184.605 301.55 187 303.805 187H340.527C341.391 187 341.848 188.023 341.272 188.667L240.836 300.919C240.099 301.743 238.767 300.938 239.154 299.902L269.928 217.55C270.66 215.589 269.211 213.5 267.118 213.5H235.372C234.613 213.5 234.13 212.687 234.494 212.02Z" stroke="url(#paint5_linear_265_346)" stroke-width="2"/>
</g>
<g filter="url(#filter3_bd_265_346)">
<mask id="path-7-inside-3_265_346" fill="white">
<path fill-rule="evenodd" clip-rule="evenodd" d="M343.563 151.351C343.683 151.352 343.804 151.353 343.924 151.353C361.087 151.353 375 137.44 375 120.277C375 103.115 361.087 89.2017 343.924 89.2017C343.804 89.2017 343.683 89.2024 343.563 89.2037V89.2017H335.535C335.825 87.075 335.975 84.9037 335.975 82.6975C335.975 56.3549 314.62 35 288.277 35C261.935 35 240.58 56.3549 240.58 82.6975C240.58 85.1831 240.77 87.6243 241.136 90.0074C238.868 89.4803 236.504 89.2017 234.076 89.2017C216.913 89.2017 203 103.115 203 120.277C203 137.44 216.913 151.353 234.076 151.353C234.197 151.353 234.318 151.352 234.439 151.351L234.437 151.353H343.563V151.351Z"/>
</mask>
<path fill-rule="evenodd" clip-rule="evenodd" d="M343.563 151.351C343.683 151.352 343.804 151.353 343.924 151.353C361.087 151.353 375 137.44 375 120.277C375 103.115 361.087 89.2017 343.924 89.2017C343.804 89.2017 343.683 89.2024 343.563 89.2037V89.2017H335.535C335.825 87.075 335.975 84.9037 335.975 82.6975C335.975 56.3549 314.62 35 288.277 35C261.935 35 240.58 56.3549 240.58 82.6975C240.58 85.1831 240.77 87.6243 241.136 90.0074C238.868 89.4803 236.504 89.2017 234.076 89.2017C216.913 89.2017 203 103.115 203 120.277C203 137.44 216.913 151.353 234.076 151.353C234.197 151.353 234.318 151.352 234.439 151.351L234.437 151.353H343.563V151.351Z" fill="url(#paint6_linear_265_346)" shape-rendering="crispEdges"/>
<path d="M343.563 151.351L343.586 149.351C343.052 149.345 342.537 149.553 342.157 149.929C341.777 150.304 341.563 150.816 341.563 151.351H343.563ZM343.563 89.2037H341.563C341.563 89.7381 341.777 90.2503 342.157 90.626C342.537 91.0017 343.051 91.2097 343.586 91.2036L343.563 89.2037ZM343.563 89.2017H345.563C345.563 88.0971 344.668 87.2017 343.563 87.2017V89.2017ZM335.535 89.2017L333.553 88.9315C333.475 89.5037 333.649 90.0818 334.028 90.5169C334.408 90.952 334.957 91.2017 335.535 91.2017V89.2017ZM241.136 90.0074L240.684 91.9555C241.33 92.1057 242.009 91.9253 242.496 91.4741C242.983 91.0228 243.214 90.3594 243.113 89.7033L241.136 90.0074ZM234.439 151.351L236.008 152.59C236.486 151.985 236.573 151.16 236.233 150.468C235.893 149.777 235.186 149.342 234.416 149.351L234.439 151.351ZM234.437 151.353L232.867 150.114C232.392 150.715 232.303 151.535 232.637 152.225C232.971 152.915 233.67 153.353 234.437 153.353V151.353ZM343.563 151.353V153.353C344.668 153.353 345.563 152.458 345.563 151.353H343.563ZM343.54 153.351C343.668 153.352 343.796 153.353 343.924 153.353V149.353C343.811 149.353 343.699 149.352 343.586 149.351L343.54 153.351ZM343.924 153.353C362.192 153.353 377 138.544 377 120.277H373C373 136.335 359.982 149.353 343.924 149.353V153.353ZM377 120.277C377 102.01 362.192 87.2017 343.924 87.2017V91.2017C359.982 91.2017 373 104.219 373 120.277H377ZM343.924 87.2017C343.796 87.2017 343.668 87.2024 343.54 87.2039L343.586 91.2036C343.699 91.2023 343.811 91.2017 343.924 91.2017V87.2017ZM341.563 89.2017V89.2037H345.563V89.2017H341.563ZM335.535 91.2017H343.563V87.2017H335.535V91.2017ZM337.517 89.4719C337.819 87.2559 337.975 84.9944 337.975 82.6975H333.975C333.975 84.8131 333.831 86.8941 333.553 88.9315L337.517 89.4719ZM337.975 82.6975C337.975 55.2503 315.724 33 288.277 33V37C313.515 37 333.975 57.4595 333.975 82.6975H337.975ZM288.277 33C260.83 33 238.58 55.2503 238.58 82.6975H242.58C242.58 57.4595 263.039 37 288.277 37V33ZM238.58 82.6975C238.58 85.2852 238.778 87.8281 239.16 90.3114L243.113 89.7033C242.762 87.4205 242.58 85.081 242.58 82.6975H238.58ZM241.589 88.0592C239.173 87.498 236.658 87.2017 234.076 87.2017V91.2017C236.351 91.2017 238.563 91.4627 240.684 91.9555L241.589 88.0592ZM234.076 87.2017C215.808 87.2017 201 102.01 201 120.277H205C205 104.219 218.018 91.2017 234.076 91.2017V87.2017ZM201 120.277C201 138.544 215.808 153.353 234.076 153.353V149.353C218.018 149.353 205 136.335 205 120.277H201ZM234.076 153.353C234.204 153.353 234.333 153.352 234.461 153.351L234.416 149.351C234.303 149.352 234.189 149.353 234.076 149.353V153.353ZM236.007 152.592L236.008 152.59L232.869 150.112L232.867 150.114L236.007 152.592ZM343.563 149.353H234.437V153.353H343.563V149.353ZM341.563 151.351V151.353H345.563V151.351H341.563Z" fill="url(#paint7_linear_265_346)" mask="url(#path-7-inside-3_265_346)"/>
</g>
<g filter="url(#filter4_bd_265_346)">
<path d="M77.1024 209.607C80.1225 205.731 86.3321 207.62 86.6822 212.521L87.8556 228.955C88.4396 237.133 80.6404 243.355 72.7958 240.969C64.9512 238.583 61.9378 229.072 66.9771 222.604L77.1024 209.607Z" fill="url(#paint8_linear_265_346)" stroke="url(#paint9_linear_265_346)" stroke-width="3"/>
<path d="M134.61 209.607C137.63 205.731 143.84 207.62 144.19 212.521L145.363 228.955C145.947 237.133 138.148 243.355 130.303 240.969C122.459 238.583 119.445 229.072 124.485 222.604L134.61 209.607Z" fill="url(#paint10_linear_265_346)" stroke="url(#paint11_linear_265_346)" stroke-width="3"/>
<path d="M192.117 209.607C195.137 205.731 201.347 207.62 201.697 212.521L202.87 228.955C203.454 237.133 195.655 243.355 187.811 240.969C179.966 238.583 176.953 229.072 181.992 222.604L192.117 209.607Z" fill="url(#paint12_linear_265_346)" stroke="url(#paint13_linear_265_346)" stroke-width="3"/>
</g>
<g filter="url(#filter5_bd_265_346)">
<path d="M99.1025 255.128C102.123 251.251 108.332 253.14 108.682 258.042L109.856 274.475C110.44 282.653 102.64 288.876 94.7959 286.489C86.9513 284.103 83.9379 274.592 88.9772 268.124L99.1025 255.128Z" fill="url(#paint14_linear_265_346)" stroke="url(#paint15_linear_265_346)" stroke-width="3"/>
<path d="M157.103 255.128C160.123 251.251 166.332 253.14 166.682 258.042L167.856 274.475C168.44 282.653 160.64 288.876 152.796 286.489C144.951 284.103 141.938 274.592 146.977 268.124L157.103 255.128Z" fill="url(#paint16_linear_265_346)" stroke="url(#paint17_linear_265_346)" stroke-width="3"/>
</g>
<defs>
<filter id="filter0_b_265_346" x="17" y="-14" width="200" height="144.353" filterUnits="userSpaceOnUse" color-interpolation-filters="sRGB">
<feFlood flood-opacity="0" result="BackgroundImageFix"/>
<feGaussianBlur in="BackgroundImageFix" stdDeviation="7"/>
<feComposite in2="SourceAlpha" operator="in" result="effect1_backgroundBlur_265_346"/>
<feBlend mode="normal" in="SourceGraphic" in2="effect1_backgroundBlur_265_346" result="shape"/>
</filter>
<filter id="filter1_bd_265_346" x="0" y="0" width="338" height="261" filterUnits="userSpaceOnUse" color-interpolation-filters="sRGB">
<feFlood flood-opacity="0" result="BackgroundImageFix"/>
<feGaussianBlur in="BackgroundImageFix" stdDeviation="7"/>
<feComposite in2="SourceAlpha" operator="in" result="effect1_backgroundBlur_265_346"/>
<feColorMatrix in="SourceAlpha" type="matrix" values="0 0 0 0 0 0 0 0 0 0 0 0 0 0 0 0 0 0 127 0" result="hardAlpha"/>
<feOffset dx="-21" dy="15"/>
<feGaussianBlur stdDeviation="25"/>
<feComposite in2="hardAlpha" operator="out"/>
<feColorMatrix type="matrix" values="0 0 0 0 0.113725 0 0 0 0 0.14902 0 0 0 0 0.27451 0 0 0 0.25 0"/>
<feBlend mode="normal" in2="effect1_backgroundBlur_265_346" result="effect2_dropShadow_265_346"/>
<feBlend mode="normal" in="SourceGraphic" in2="effect2_dropShadow_265_346" result="shape"/>
</filter>
<filter id="filter2_bdd_265_346" x="162.369" y="62" width="241.162" height="305.265" filterUnits="userSpaceOnUse" color-interpolation-filters="sRGB">
<feFlood flood-opacity="0" result="BackgroundImageFix"/>
<feGaussianBlur in="BackgroundImageFix" stdDeviation="7"/>
<feComposite in2="SourceAlpha" operator="in" result="effect1_backgroundBlur_265_346"/>
<feColorMatrix in="SourceAlpha" type="matrix" values="0 0 0 0 0 0 0 0 0 0 0 0 0 0 0 0 0 0 127 0" result="hardAlpha"/>
<feOffset dx="-21" dy="15"/>
<feGaussianBlur stdDeviation="25"/>
<feComposite in2="hardAlpha" operator="out"/>
<feColorMatrix type="matrix" values="0 0 0 0 0.113438 0 0 0 0 0.148981 0 0 0 0 0.275 0 0 0 0.25 0"/>
<feBlend mode="normal" in2="effect1_backgroundBlur_265_346" result="effect2_dropShadow_265_346"/>
<feColorMatrix in="SourceAlpha" type="matrix" values="0 0 0 0 0 0 0 0 0 0 0 0 0 0 0 0 0 0 127 0" result="hardAlpha"/>
<feOffset/>
<feGaussianBlur stdDeviation="30.5"/>
<feComposite in2="hardAlpha" operator="out"/>
<feColorMatrix type="matrix" values="0 0 0 0 1 0 0 0 0 0.721569 0 0 0 0 0.00392157 0 0 0 0.49 0"/>
<feBlend mode="normal" in2="effect2_dropShadow_265_346" result="effect3_dropShadow_265_346"/>
<feBlend mode="normal" in="SourceGraphic" in2="effect3_dropShadow_265_346" result="shape"/>
</filter>
<filter id="filter3_bd_265_346" x="132" y="0" width="272" height="216.353" filterUnits="userSpaceOnUse" color-interpolation-filters="sRGB">
<feFlood flood-opacity="0" result="BackgroundImageFix"/>
<feGaussianBlur in="BackgroundImageFix" stdDeviation="7"/>
<feComposite in2="SourceAlpha" operator="in" result="effect1_backgroundBlur_265_346"/>
<feColorMatrix in="SourceAlpha" type="matrix" values="0 0 0 0 0 0 0 0 0 0 0 0 0 0 0 0 0 0 127 0" result="hardAlpha"/>
<feOffset dx="-21" dy="15"/>
<feGaussianBlur stdDeviation="25"/>
<feComposite in2="hardAlpha" operator="out"/>
<feColorMatrix type="matrix" values="0 0 0 0 0.113438 0 0 0 0 0.148981 0 0 0 0 0.275 0 0 0 0.25 0"/>
<feBlend mode="normal" in2="effect1_backgroundBlur_265_346" result="effect2_dropShadow_265_346"/>
<feBlend mode="normal" in="SourceGraphic" in2="effect2_dropShadow_265_346" result="shape"/>
</filter>
<filter id="filter4_bd_265_346" x="22.0018" y="158.031" width="223.4" height="118.955" filterUnits="userSpaceOnUse" color-interpolation-filters="sRGB">
<feFlood flood-opacity="0" result="BackgroundImageFix"/>
<feGaussianBlur in="BackgroundImageFix" stdDeviation="7"/>
<feComposite in2="SourceAlpha" operator="in" result="effect1_backgroundBlur_265_346"/>
<feColorMatrix in="SourceAlpha" type="matrix" values="0 0 0 0 0 0 0 0 0 0 0 0 0 0 0 0 0 0 127 0" result="hardAlpha"/>
<feOffset dy="-7"/>
<feGaussianBlur stdDeviation="20.5"/>
<feComposite in2="hardAlpha" operator="out"/>
<feColorMatrix type="matrix" values="0 0 0 0 0.1375 0 0 0 0 0.74125 0 0 0 0 1 0 0 0 0.3 0"/>
<feBlend mode="normal" in2="effect1_backgroundBlur_265_346" result="effect2_dropShadow_265_346"/>
<feBlend mode="normal" in="SourceGraphic" in2="effect2_dropShadow_265_346" result="shape"/>
</filter>
<filter id="filter5_bd_265_346" x="44.002" y="203.551" width="166.385" height="118.955" filterUnits="userSpaceOnUse" color-interpolation-filters="sRGB">
<feFlood flood-opacity="0" result="BackgroundImageFix"/>
<feGaussianBlur in="BackgroundImageFix" stdDeviation="7"/>
<feComposite in2="SourceAlpha" operator="in" result="effect1_backgroundBlur_265_346"/>
<feColorMatrix in="SourceAlpha" type="matrix" values="0 0 0 0 0 0 0 0 0 0 0 0 0 0 0 0 0 0 127 0" result="hardAlpha"/>
<feOffset dy="-7"/>
<feGaussianBlur stdDeviation="20.5"/>
<feComposite in2="hardAlpha" operator="out"/>
<feColorMatrix type="matrix" values="0 0 0 0 0.1375 0 0 0 0 0.74125 0 0 0 0 1 0 0 0 0.3 0"/>
<feBlend mode="normal" in2="effect1_backgroundBlur_265_346" result="effect2_dropShadow_265_346"/>
<feBlend mode="normal" in="SourceGraphic" in2="effect2_dropShadow_265_346" result="shape"/>
</filter>
<linearGradient id="paint0_linear_265_346" x1="125" y1="3.5" x2="125" y2="129.5" gradientUnits="userSpaceOnUse">
<stop stop-color="white"/>
<stop offset="1" stop-color="white" stop-opacity="0"/>
</linearGradient>
<linearGradient id="paint1_linear_265_346" x1="117" y1="0" x2="117" y2="116.353" gradientUnits="userSpaceOnUse">
<stop stop-color="white"/>
<stop offset="1" stop-color="white" stop-opacity="0"/>
</linearGradient>
<linearGradient id="paint2_linear_265_346" x1="190" y1="-16.5" x2="190" y2="218.5" gradientUnits="userSpaceOnUse">
<stop stop-color="white"/>
<stop offset="1" stop-color="white" stop-opacity="0"/>
</linearGradient>
<linearGradient id="paint3_linear_265_346" x1="190" y1="35" x2="190" y2="196" gradientUnits="userSpaceOnUse">
<stop stop-color="white"/>
<stop offset="1" stop-color="white" stop-opacity="0"/>
</linearGradient>
<linearGradient id="paint4_linear_265_346" x1="299.5" y1="134" x2="274.5" y2="242.5" gradientUnits="userSpaceOnUse">
<stop stop-color="#FF4D00"/>
<stop offset="1" stop-color="#FFB800"/>
</linearGradient>
<linearGradient id="paint5_linear_265_346" x1="266" y1="241" x2="311.5" y2="143.5" gradientUnits="userSpaceOnUse">
<stop stop-color="white"/>
<stop offset="1" stop-color="white" stop-opacity="0"/>
</linearGradient>
<linearGradient id="paint6_linear_265_346" x1="297" y1="38.5" x2="297" y2="164.5" gradientUnits="userSpaceOnUse">
<stop stop-color="white"/>
<stop offset="1" stop-color="white" stop-opacity="0"/>
</linearGradient>
<linearGradient id="paint7_linear_265_346" x1="289" y1="35" x2="289" y2="151.353" gradientUnits="userSpaceOnUse">
<stop stop-color="white"/>
<stop offset="1" stop-color="white" stop-opacity="0"/>
</linearGradient>
<linearGradient id="paint8_linear_265_346" x1="86.9051" y1="194.585" x2="72.3593" y2="242.404" gradientUnits="userSpaceOnUse">
<stop stop-color="#138EFF"/>
<stop offset="1" stop-color="#00E0FF"/>
</linearGradient>
<linearGradient id="paint9_linear_265_346" x1="86.9051" y1="194.585" x2="72.3593" y2="242.404" gradientUnits="userSpaceOnUse">
<stop stop-color="white"/>
<stop offset="1" stop-color="white" stop-opacity="0"/>
</linearGradient>
<linearGradient id="paint10_linear_265_346" x1="144.413" y1="194.585" x2="129.867" y2="242.404" gradientUnits="userSpaceOnUse">
<stop stop-color="#138EFF"/>
<stop offset="1" stop-color="#00E0FF"/>
</linearGradient>
<linearGradient id="paint11_linear_265_346" x1="144.413" y1="194.585" x2="129.867" y2="242.404" gradientUnits="userSpaceOnUse">
<stop stop-color="white"/>
<stop offset="1" stop-color="white" stop-opacity="0"/>
</linearGradient>
<linearGradient id="paint12_linear_265_346" x1="201.92" y1="194.585" x2="187.374" y2="242.404" gradientUnits="userSpaceOnUse">
<stop stop-color="#138EFF"/>
<stop offset="1" stop-color="#00E0FF"/>
</linearGradient>
<linearGradient id="paint13_linear_265_346" x1="201.92" y1="194.585" x2="187.374" y2="242.404" gradientUnits="userSpaceOnUse">
<stop stop-color="white"/>
<stop offset="1" stop-color="white" stop-opacity="0"/>
</linearGradient>
<linearGradient id="paint14_linear_265_346" x1="108.905" y1="240.105" x2="94.3594" y2="287.925" gradientUnits="userSpaceOnUse">
<stop stop-color="#138EFF"/>
<stop offset="1" stop-color="#00E0FF"/>
</linearGradient>
<linearGradient id="paint15_linear_265_346" x1="108.905" y1="240.105" x2="94.3594" y2="287.925" gradientUnits="userSpaceOnUse">
<stop stop-color="white"/>
<stop offset="1" stop-color="white" stop-opacity="0"/>
</linearGradient>
<linearGradient id="paint16_linear_265_346" x1="166.905" y1="240.105" x2="152.359" y2="287.925" gradientUnits="userSpaceOnUse">
<stop stop-color="#138EFF"/>
<stop offset="1" stop-color="#00E0FF"/>
</linearGradient>
<linearGradient id="paint17_linear_265_346" x1="166.905" y1="240.105" x2="152.359" y2="287.925" gradientUnits="userSpaceOnUse">
<stop stop-color="white"/>
<stop offset="1" stop-color="white" stop-opacity="0"/>
</linearGradient>
</defs>
</svg>
